<svg xmlns="http://www.w3.org/2000/svg" xmlns:xlink="http://www.w3.org/1999/xlink" width="355" height="350" viewBox="0 0 355 350">
  <defs>
    <linearGradient id="linear-gradient" y1="0.5" x2="1" y2="0.5" gradientUnits="objectBoundingBox">
      <stop offset="0" stop-color="#f1cfba"/>
      <stop offset="1" stop-color="#d388a1"/>
    </linearGradient>
    <linearGradient id="linear-gradient-3" x1="3.164" y1="2.671" x2="-0.742" y2="-0.559" gradientUnits="objectBoundingBox">
      <stop offset="0" stop-color="#20267f"/>
      <stop offset="0.239" stop-color="#212881"/>
      <stop offset="0.415" stop-color="#252f8b"/>
      <stop offset="0.571" stop-color="#2c3b9b"/>
      <stop offset="0.714" stop-color="#364db1"/>
      <stop offset="0.85" stop-color="#4363ce"/>
      <stop offset="0.978" stop-color="#527ef2"/>
      <stop offset="1" stop-color="#5684f9"/>
    </linearGradient>
    <linearGradient id="linear-gradient-4" x1="3.294" y1="2.329" x2="-1.452" y2="-0.723" xlink:href="#linear-gradient-3"/>
    <linearGradient id="linear-gradient-5" x1="19.413" y1="12.25" x2="21.022" y2="11.125" gradientUnits="objectBoundingBox">
      <stop offset="0.037" stop-color="#0f1782"/>
      <stop offset="0.123" stop-color="#0f1782"/>
      <stop offset="1" stop-color="#0168ff"/>
    </linearGradient>
    <linearGradient id="linear-gradient-6" x1="0.494" y1="1.44" x2="0.501" y2="0.507" xlink:href="#linear-gradient"/>
    <linearGradient id="linear-gradient-7" x1="-0.116" y1="0.531" x2="0.996" y2="0.473" xlink:href="#linear-gradient"/>
    <linearGradient id="linear-gradient-8" x1="0.965" x2="0.096" y2="0.969" gradientUnits="objectBoundingBox">
      <stop offset="0" stop-color="#2f578b"/>
      <stop offset="1" stop-color="#040956"/>
    </linearGradient>
    <linearGradient id="linear-gradient-9" x1="-0.168" y1="0.512" x2="1.327" y2="0.482" gradientUnits="objectBoundingBox">
      <stop offset="0.001" stop-color="#fff"/>
      <stop offset="1" stop-color="#828fa9"/>
    </linearGradient>
    <linearGradient id="linear-gradient-10" x1="0.335" y1="0.505" x2="0.298" y2="0.506" gradientUnits="objectBoundingBox">
      <stop offset="0.309" stop-color="#1831a1"/>
      <stop offset="1" stop-color="#2848bd"/>
    </linearGradient>
    <linearGradient id="linear-gradient-11" x1="1.356" y1="0.497" x2="-0.242" y2="0.502" gradientUnits="objectBoundingBox">
      <stop offset="0" stop-color="#83a8fa"/>
      <stop offset="1" stop-color="#2848bd"/>
    </linearGradient>
    <linearGradient id="linear-gradient-12" x1="0.515" y1="0.356" x2="0.558" y2="-0.069" gradientUnits="objectBoundingBox">
      <stop offset="0" stop-color="#fff"/>
      <stop offset="1" stop-color="#f7fbff"/>
    </linearGradient>
    <linearGradient id="linear-gradient-13" x1="1.827" y1="3.669" x2="-0.253" y2="-1.252" xlink:href="#linear-gradient-3"/>
    <linearGradient id="linear-gradient-14" x1="0.498" y1="0.512" x2="2.251" y2="-0.484" xlink:href="#linear-gradient-3"/>
    <linearGradient id="linear-gradient-15" x1="1.539" y1="0.156" x2="-0.383" y2="0.785" xlink:href="#linear-gradient-3"/>
    <linearGradient id="linear-gradient-16" x1="1.736" y1="5.634" x2="-0.266" y2="-2.3" xlink:href="#linear-gradient-3"/>
    <linearGradient id="linear-gradient-17" x1="0.522" y1="-0.366" x2="0.449" y2="2.555" gradientUnits="objectBoundingBox">
      <stop offset="0" stop-color="#e8f0fd"/>
      <stop offset="0.171" stop-color="#dee8fc"/>
      <stop offset="0.461" stop-color="#c3d6fb"/>
      <stop offset="0.831" stop-color="#98b7fa"/>
      <stop offset="1" stop-color="#83a8fa"/>
    </linearGradient>
    <linearGradient id="linear-gradient-18" y1="0.5" x2="1" y2="0.5" gradientUnits="objectBoundingBox">
      <stop offset="0" stop-color="#df6981"/>
      <stop offset="1" stop-color="#2c314d"/>
    </linearGradient>
    <linearGradient id="linear-gradient-22" x1="2.543" y1="0.774" x2="-1.923" y2="0.237" xlink:href="#linear-gradient-17"/>
    <linearGradient id="linear-gradient-23" x1="1.77" y1="0.639" x2="-0.341" y2="0.446" xlink:href="#linear-gradient-17"/>
    <clipPath id="clip-path">
      <path id="Path_347" data-name="Path 347" d="M1233.549,413.813c0-3.051-.515-2.84-.515-2.84-.279-.862.118-2.361-1.48-2.8-3.135-.855-2.634,6.874-1.1,6.76,1.969-.147-2.277,5.836-2.277,5.836-.645,2.218,11.485,5.33,11.485,5.33-.456-3.189,1.247-6.813,1.7-9.092C1241.712,415.257,1236.4,413.574,1233.549,413.813Z" transform="translate(-1228.147 -408.11)" fill="url(#linear-gradient)"/>
    </clipPath>
    <clipPath id="clip-path-2">
      <path id="Path_352" data-name="Path 352" d="M1243.717,386.716c-1.345,6.794-2.921,9.263-.892,12.652,2.982,4.98,4.058,5.1,6.629,5.552,2.515.445,6.345-5.922,7.012-7.226,1.062-2.077.227-2.267.764-4.5a20.993,20.993,0,0,0,1.138-4.32C1259.446,381.313,1245.366,378.388,1243.717,386.716Z" transform="translate(-1241.855 -381.688)" fill="url(#linear-gradient)"/>
    </clipPath>
    <clipPath id="clip-path-3">
      <path id="Path_355" data-name="Path 355" d="M1243.192,382.332c1.407,1.06,3.316.612,4.633-1.38s3.44-7.884,7.6-5.044c.776.529,2.729-1.77,1.695,3.348-.64,3.171.195,6.485,1.766,9.664s2.354,3.611,1.389,7.6c2.166-3.687,4.616-4.946,3.271-10.277-1.078-4.275,3.112-9.274,1.583-13.025s-8.423-7.9-13.512-4.811c0,0-2.855-1.191-5.535,1.759C1241.637,375.061,1243.192,382.332,1243.192,382.332Z" transform="translate(-1242.929 -367.325)" fill="#ff6984"/>
    </clipPath>
    <linearGradient id="linear-gradient-30" x1="1.445" y1="0.555" x2="0.054" y2="0.492" xlink:href="#linear-gradient"/>
    <linearGradient id="linear-gradient-32" x1="4.651" y1="0.863" x2="-0.831" y2="0.387" xlink:href="#linear-gradient-17"/>
    <linearGradient id="linear-gradient-33" x1="2.128" y1="0.587" x2="-4.136" y2="0.256" xlink:href="#linear-gradient"/>
    <clipPath id="clip-path-4">
      <path id="Path_369" data-name="Path 369" d="M654.833,956.873c-.578,2.374-1.031,11.109-2.712,11.82s-11.469,1.953-16.161,1.946-10.72-3.076-11.584-4.626c-1.545-2.772-2.806-4.929,1.1-4.542,5.675.561,14.708-2.512,16.8-6.585S654.833,956.873,654.833,956.873Z" transform="translate(-622.881 -953.478)" fill="url(#linear-gradient-3)"/>
    </clipPath>
    <clipPath id="clip-path-5">
      <path id="Path_372" data-name="Path 372" d="M726.909,895.736c.263,2.217,1.878,6.093.859,7.258s-11.956,6.626-15.371,8.18-9.367.066-10.371-.67,1.539-3.076,5.19-5.581,7.9-5.27,8.257-9.441S726.909,895.736,726.909,895.736Z" transform="translate(-701.806 -893.692)" fill="url(#linear-gradient-4)"/>
    </clipPath>
    <linearGradient id="linear-gradient-36" x1="-0.188" y1="0.33" x2="1.141" y2="0.654" xlink:href="#linear-gradient-3"/>
    <linearGradient id="linear-gradient-37" x1="-0.284" y1="0.322" x2="0.9" y2="0.589" xlink:href="#linear-gradient-3"/>
    <clipPath id="clip-path-6">
      <path id="Path_376" data-name="Path 376" d="M834.748,439.07c2.573,2.38,2.462,3.17,2.347,5.071s5.4,4.767,9.686,1.883A3.888,3.888,0,0,0,847.9,440.3c-1.245-1.844-4.88-6.631-4.88-6.631Z" transform="translate(-834.748 -433.671)" fill="none"/>
    </clipPath>
    <clipPath id="clip-path-7">
      <path id="Path_381" data-name="Path 381" d="M801.241,379.233c-6.281-4.729-1.178-9.519,3.082-13.94,1.688-1.751,8.995-6.893,12.864-2.072,2.424-.706,4.575.269,6.342,5.555,2.206,6.6.245,9.764.434,15.476l-18.726-6.361Z" transform="translate(-798.301 -361.212)" fill="url(#linear-gradient-5)"/>
    </clipPath>
    <clipPath id="clip-path-8">
      <path id="Path_384" data-name="Path 384" d="M849.651,414.7c2.161-1.563,3.009-2.118,3.009-2.118.165-.859-.125-2.734,1.462-3.394,3.112-1.295,3.7,6.107,2.1,6.235-2.052.165,2.071,8.366,6.764,10.754,2.91,1.481-10.406,6.142-13.806,5.55-5.888-1.026.062-9.87-3.919-12.654C843.8,418.05,846.679,414.916,849.651,414.7Z" transform="translate(-844.868 -409.039)" fill="url(#linear-gradient-6)"/>
    </clipPath>
    <clipPath id="clip-path-9">
      <path id="Path_388" data-name="Path 388" d="M828.839,407.309c2.6,3.315,6.68,3.392,5.069,6.916-2.367,5.18-3.46,5.456-6.048,6.284-2.531.81-7-3.569-7.69-4.808-1.366-2.473-1.427-3.971-2-5.1-.647-1.267-1.284-1.217-1.789-3.918a10.788,10.788,0,0,0,4.3-2.747c1.175-1.236,2.712-1.321,4.509-.5C827.022,404.277,826.984,404.939,828.839,407.309Z" transform="translate(-816.38 -402.902)" fill="url(#linear-gradient-7)"/>
    </clipPath>
    <clipPath id="clip-path-10">
      <path id="Path_398" data-name="Path 398" d="M888.678,481.858c-11.773,6.1-10.2,27.085-10.95,29.826s-3.183,4.028-2.711,5.665-.073,3.123-2.74,3.134c-3.577.014-.228,13.716,7.908,13.725s7.893-2.82,7.753-4.939c-.246-3.719,2.719-4.776,1.766-6.708s-.459-2.853,1.136-4.171a3.766,3.766,0,0,0,1.245-3.341s2.9-9.764,4.885-19.171C899.124,485.657,890.206,481.066,888.678,481.858Z" transform="translate(-870.852 -481.77)" fill="#fff"/>
    </clipPath>
    <linearGradient id="linear-gradient-47" x1="1.107" y1="-0.023" x2="-0.719" y2="1.55" xlink:href="#linear-gradient-17"/>
    <linearGradient id="linear-gradient-48" x1="1.352" y1="0" x2="-0.81" y2="1.269" xlink:href="#linear-gradient-5"/>
    <clipPath id="clip-path-11">
      <rect width="34.997" height="47.997" fill="none"/>
    </clipPath>
  </defs>
  <path id="Frame" d="M0,0H250V350H25A25,25,0,0,1,0,325Z" transform="translate(105)" fill="url(#linear-gradient-8)"/>
  <g id="Illustration" transform="translate(-548.788 -208.353)">
    <path id="Path_291" data-name="Path 291" d="M834.425,761.394l-50.619-.958,6.9-2.508a3.8,3.8,0,0,0,0-7.141l-67.586-24.564a23.876,23.876,0,0,0-16.3,0L551.294,782.792a3.8,3.8,0,0,0,0,7.141L618.879,814.5a23.874,23.874,0,0,0,16.305,0l91.053-33.121,83.582.551-.573-4.968-59.505-4.132,12.628-4.594c19.5-.624,50.221-1.549,60.752-1.549,5.727,0,13.593,6.025,22.538,4.078C849.235,769.984,834.425,761.394,834.425,761.394Z" transform="translate(0 -257.579)" fill="url(#linear-gradient-9)" style="mix-blend-mode: multiply;isolation: isolate"/>
    <g id="Group_37" data-name="Group 37" transform="translate(594.694 411.73)">
      <path id="Path_292" data-name="Path 292" d="M875.778,566.335a25.893,25.893,0,0,0-17.683,0L708.348,620.875l-10.1.866-.006,7.069v.317h.011a5.984,5.984,0,0,0,4.01,5.422l68.181,24.78a25.9,25.9,0,0,0,17.684,0L944.47,602.393a5.8,5.8,0,0,0,3.885-5.36h.006v-7.488l-7.06.605Z" transform="translate(-698.243 -558.347)" fill="url(#linear-gradient-10)"/>
      <path id="Path_293" data-name="Path 293" d="M944.472,571.409l-68.694-24.967a25.894,25.894,0,0,0-17.683,0L702.265,603.192a6.1,6.1,0,0,0,0,11.464l68.181,24.78a25.9,25.9,0,0,0,17.684,0L944.47,582.5A5.9,5.9,0,0,0,944.472,571.409Z" transform="translate(-698.243 -544.552)" fill="#001f99"/>
      <path id="Path_294" data-name="Path 294" d="M944.472,570.322l-68.694-24.967a25.894,25.894,0,0,0-17.683,0L702.265,602.105a6.1,6.1,0,0,0,0,11.464l68.181,24.78a25.9,25.9,0,0,0,17.684,0L944.47,581.414A5.9,5.9,0,0,0,944.472,570.322Z" transform="translate(-698.243 -543.798)" fill="url(#linear-gradient-11)"/>
      <path id="Path_295" data-name="Path 295" d="M949.591,576.165,882,551.6a23.874,23.874,0,0,0-16.305,0L710.182,608.171a3.8,3.8,0,0,0,0,7.141l67.587,24.564a23.878,23.878,0,0,0,16.305,0l155.518-56.571A3.8,3.8,0,0,0,949.591,576.165Z" transform="translate(-704.779 -548.214)" fill="url(#linear-gradient-12)"/>
      <g id="Group_35" data-name="Group 35" transform="translate(20.732 60.581)">
        <g id="Group_17" data-name="Group 17" transform="translate(2.756)">
          <path id="Path_296" data-name="Path 296" d="M774.712,742.221l1.962.715,2.144-.786-1.963-.715Zm1.989.49-1.373-.5,1.5-.55,1.374.5Z" transform="translate(-774.712 -741.435)" fill="#83a8fa"/>
        </g>
        <g id="Group_18" data-name="Group 18" transform="translate(5.303 0.928)">
          <path id="Path_297" data-name="Path 297" d="M783.005,745.248l1.962.715,2.144-.786-1.963-.715Zm1.99.49-1.374-.5,1.5-.55,1.374.5Z" transform="translate(-783.005 -744.462)" fill="#83a8fa"/>
        </g>
        <g id="Group_19" data-name="Group 19" transform="translate(20.394 6.425)">
          <path id="Path_298" data-name="Path 298" d="M832.137,763.183l1.962.715,2.144-.786-1.962-.715Zm1.989.49-1.373-.5,1.5-.55,1.373.5Z" transform="translate(-832.137 -762.397)" fill="#83a8fa"/>
        </g>
        <g id="Group_20" data-name="Group 20" transform="translate(15.452 6.508)">
          <path id="Path_299" data-name="Path 299" d="M816.048,763.454l1.962.715,2.144-.786-1.962-.715Zm1.989.49-1.373-.5,1.5-.55,1.373.5Z" transform="translate(-816.048 -762.668)" fill="#83a8fa"/>
        </g>
        <g id="Group_21" data-name="Group 21" transform="translate(0 1.01)">
          <path id="Path_300" data-name="Path 300" d="M765.739,745.517l1.962.715,2.144-.786-1.962-.715Zm1.989.49-1.373-.5,1.5-.55,1.374.5Z" transform="translate(-765.739 -744.731)" fill="#83a8fa"/>
        </g>
        <g id="Group_22" data-name="Group 22" transform="translate(2.547 1.938)">
          <path id="Path_301" data-name="Path 301" d="M774.032,748.544l1.963.715,2.143-.786-1.962-.715Zm1.99.49-1.374-.5,1.5-.55,1.373.5Z" transform="translate(-774.032 -747.758)" fill="#83a8fa"/>
        </g>
        <g id="Group_23" data-name="Group 23" transform="translate(18.269 5.915)">
          <path id="Path_302" data-name="Path 302" d="M825.936,760.85l1.54.561a5.742,5.742,0,0,0-2.258.277l.295.107a5.005,5.005,0,0,1,2.85-.062l.3-.124-2.407-.877Z" transform="translate(-825.218 -760.732)" fill="#83a8fa"/>
        </g>
        <g id="Group_24" data-name="Group 24" transform="translate(17.925 5.527)">
          <path id="Path_303" data-name="Path 303" d="M825.1,760.183l.875.319.956-.351-.875-.319Z" transform="translate(-824.791 -759.72)" fill="#83a8fa"/>
          <path id="Path_304" data-name="Path 304" d="M824.1,759.933l1.169.426,1.277-.468-1.17-.426Zm1.2.2-.581-.211.634-.233.581.211Z" transform="translate(-824.097 -759.465)" fill="#83a8fa"/>
        </g>
        <g id="Group_25" data-name="Group 25" transform="translate(48.807 16.357)">
          <path id="Path_305" data-name="Path 305" d="M925.645,795.514l.875.319.956-.35-.875-.319Z" transform="translate(-925.337 -795.051)" fill="#83a8fa"/>
          <path id="Path_306" data-name="Path 306" d="M924.642,795.264l1.17.426,1.277-.468-1.17-.426Zm1.2.2-.581-.211.635-.232.581.211Z" transform="translate(-924.642 -794.796)" fill="#83a8fa"/>
        </g>
        <g id="Group_26" data-name="Group 26" transform="translate(50.103 16.83)">
          <path id="Path_307" data-name="Path 307" d="M928.86,796.457l3.807,1.387.322-.118-3.807-1.387Z" transform="translate(-928.86 -796.339)" fill="#83a8fa"/>
        </g>
        <g id="Group_27" data-name="Group 27" transform="translate(50.33 18.331)">
          <path id="Path_308" data-name="Path 308" d="M930.6,801.955l.875.319.956-.35-.875-.319Z" transform="translate(-930.294 -801.492)" fill="#83a8fa"/>
          <path id="Path_309" data-name="Path 309" d="M929.6,801.705l1.17.426,1.277-.468-1.169-.426Zm1.2.2-.581-.211.634-.233.581.211Z" transform="translate(-929.599 -801.237)" fill="#83a8fa"/>
        </g>
        <g id="Group_28" data-name="Group 28" transform="translate(47.407 17.267)">
          <path id="Path_310" data-name="Path 310" d="M920.083,797.885l4.561,1.661.322-.118-4.561-1.662Z" transform="translate(-920.083 -797.767)" fill="#83a8fa"/>
        </g>
        <g id="Group_29" data-name="Group 29" transform="translate(46.121 18.162)">
          <path id="Path_311" data-name="Path 311" d="M916.9,801.4l.875.319.956-.35-.875-.319Z" transform="translate(-916.591 -800.941)" fill="#83a8fa"/>
          <path id="Path_312" data-name="Path 312" d="M915.9,801.154l1.17.426,1.277-.468-1.169-.426Zm1.2.2-.581-.211.635-.233.581.211Z" transform="translate(-915.896 -800.686)" fill="#83a8fa"/>
        </g>
        <g id="Group_30" data-name="Group 30" transform="translate(45.581 17.967)">
          <path id="Path_313" data-name="Path 313" d="M914.139,800.167l4.519,1.646.322-.118-4.52-1.647Z" transform="translate(-914.139 -800.049)" fill="#83a8fa"/>
        </g>
        <g id="Group_31" data-name="Group 31" transform="translate(66.274 22.832)">
          <path id="Path_314" data-name="Path 314" d="M981.51,816.039l3.07,1.118.322-.118-3.07-1.119Z" transform="translate(-981.51 -815.922)" fill="#83a8fa"/>
        </g>
        <g id="Group_32" data-name="Group 32" transform="translate(63.5 22.76)">
          <path id="Path_315" data-name="Path 315" d="M972.479,815.8l4.56,1.661.322-.118-4.561-1.661Z" transform="translate(-972.479 -815.686)" fill="#83a8fa"/>
        </g>
        <g id="Group_33" data-name="Group 33" transform="translate(62.238 23.223)">
          <path id="Path_316" data-name="Path 316" d="M968.367,817.314l4.561,1.661.322-.118-4.561-1.661Z" transform="translate(-968.367 -817.196)" fill="#83a8fa"/>
        </g>
        <g id="Group_34" data-name="Group 34" transform="translate(61.016 23.701)">
          <path id="Path_317" data-name="Path 317" d="M964.39,818.873l4.52,1.646.322-.118-4.52-1.647Z" transform="translate(-964.39 -818.755)" fill="#83a8fa"/>
        </g>
      </g>
      <g id="Group_36" data-name="Group 36" transform="translate(46.483 68.558)">
        <path id="Path_318" data-name="Path 318" d="M858.552,767.459c-4.956,0-8.974,1.986-8.974,4.436s4.018,4.437,8.974,4.437,8.975-1.987,8.975-4.437S863.509,767.459,858.552,767.459Z" transform="translate(-849.578 -767.459)" fill="#2848bd"/>
        <path id="Path_319" data-name="Path 319" d="M866.318,778.9l.676.259,6.646-2.376-.676-.259Z" transform="translate(-861.177 -773.743)" fill="#fff"/>
        <path id="Path_320" data-name="Path 320" d="M867.3,777.145l6.332,2.139.687-.294-6.332-2.139Z" transform="translate(-861.86 -773.972)" fill="#fff"/>
      </g>
      <path id="Path_321" data-name="Path 321" d="M808.969,787.206l24.324,8.724.622-.266-24.324-8.724Z" transform="translate(-774.959 -712.411)" fill="#83a8fa"/>
    </g>
    <path id="Path_322" data-name="Path 322" d="M931.96,415.048l-77.54-28.165c-2.53-.919-4.581.7-4.581,3.615v22.475a7.781,7.781,0,0,0,4.581,6.943L927.6,446.5l8.235,18.757.68-.329.03-15.179V421.991A7.78,7.78,0,0,0,931.96,415.048Z" transform="translate(-208.582 -23.074)" fill="#001f99"/>
    <g id="Group_40" data-name="Group 40" transform="translate(739.779 428.327)">
      <path id="Path_323" data-name="Path 323" d="M1472.155,823.919c-3.569-2.062-7.277-2.554-10.417-6.33a33.886,33.886,0,0,1-3.857-6.1l-4.769,2.119c1.589,1.812,1.147,4.313,1.858,5.629,1.434,2.658,1.661,3.641,2.9,4.218,4.711,2.19,8.215,6.253,10.677,6.987,4.133,1.232,6.119-.429,6.6-.91S1475.421,825.806,1472.155,823.919Z" transform="translate(-1366.338 -746.031)" fill="#2848bd"/>
      <path id="Path_324" data-name="Path 324" d="M1467.6,819.106c-3.569-2.062-7.7-4.175-10.838-7.951a33.912,33.912,0,0,1-3.857-6.1l-5.539,3.659a16.51,16.51,0,0,1,2.628,4.089c1.434,2.658,1.661,3.641,2.9,4.218,4.711,2.191,8.215,6.253,10.677,6.987,4.133,1.232,6.119-.429,6.6-.911S1470.865,820.993,1467.6,819.106Z" transform="translate(-1362.356 -741.569)" fill="url(#linear-gradient-13)"/>
      <g id="Group_38" data-name="Group 38" transform="translate(21.106 0.779)">
        <path id="Path_325" data-name="Path 325" d="M1288.984,643.815c5.4,6.2,13.8,22.586,14.235,23.037,1.932,2.025,7.54-1.11,6.345-2.837-6.5-9.4-11.565-41.861-19.967-45.59-5.96-2.646-44.285-17.937-44.285-17.937l-6,13.817,43.082,12.961S1284,638.088,1288.984,643.815Z" transform="translate(-1239.317 -600.488)" fill="url(#linear-gradient-14)"/>
      </g>
      <g id="Group_39" data-name="Group 39">
        <path id="Path_326" data-name="Path 326" d="M1170.6,608.965c.226,11.221,10.708,17.991,19.584,18.808,11.592,1.068,32.528,6.451,34.474,8s.14-.4-1.676,10.856c-1.381,8.565,6.773,20.225,4.03,33.62-.534,2.608,7.637,2.61,7.637,1.26,0-7.721,1.82-38.485,3.446-46.12,1.7-8-2.93-11.845-8.964-14.995-3.437-1.794-26.2-12-27.848-13.649-3.132-3.126-3.582-8.018-3.582-8.018l-23.5-.779S1170.543,606.068,1170.6,608.965Z" transform="translate(-1170.601 -597.945)" fill="url(#linear-gradient-15)"/>
      </g>
      <path id="Path_327" data-name="Path 327" d="M1369.937,878.458c-3.489-.75-10.947-1.234-11.824-5.249-.1.044-4.749,1.358-7.637-1.26-.85,3.917-3.493,9.042.344,9.83,9.393,1.928,11.591,2.469,17.126,2.088C1374.172,883.439,1374.341,879.4,1369.937,878.458Z" transform="translate(-1294.063 -787.96)" fill="#2848bd"/>
      <path id="Path_328" data-name="Path 328" d="M1369.59,874.149c-3.489-.75-10.6-2.434-11.478-6.449-.1.044-4.749,1.357-7.637-1.26-.85,3.916-3.493,9.042.344,9.83,9.393,1.928,11.591,2.469,17.126,2.088C1374.172,877.93,1373.994,875.1,1369.59,874.149Z" transform="translate(-1294.063 -784.139)" fill="url(#linear-gradient-16)"/>
    </g>
    <path id="Path_329" data-name="Path 329" d="M929.649,416.487l-77.54-28.165c-2.53-.919-4.581.7-4.581,3.615v22.475a7.781,7.781,0,0,0,4.581,6.943l73.176,26.579,8.945,18.316V423.43A7.78,7.78,0,0,0,929.649,416.487Z" transform="translate(-206.981 -24.071)" fill="url(#linear-gradient-17)"/>
    <path id="Path_330" data-name="Path 330" d="M875.833,423.438l49.846,18.105v-3.1l-49.846-18.105Z" transform="translate(-226.592 -46.453)" fill="#72abfe" opacity="0.22" style="mix-blend-mode: multiply;isolation: isolate"/>
    <path id="Path_331" data-name="Path 331" d="M875.833,445.094,925.679,463.2v-3.1L875.833,442Z" transform="translate(-226.592 -61.471)" fill="#72abfe" opacity="0.22" style="mix-blend-mode: multiply;isolation: isolate"/>
    <path id="Path_332" data-name="Path 332" d="M875.833,466.751l35.627,12.99v-3.1l-35.627-12.99Z" transform="translate(-226.592 -76.489)" fill="#72abfe" opacity="0.22" style="mix-blend-mode: multiply;isolation: isolate"/>
    <g id="Group_50" data-name="Group 50" transform="translate(719.634 353.353)">
      <path id="Path_333" data-name="Path 333" d="M1138.418,355.334c-8.047-1.744-4.956,7.658-10.83,9.741s-9.488.534-10.209,6.68-3.349,2.467-9.348,5.57c-3.518,1.82-3.783,5.569-1.715,7.159s4.673-3.547,11.046,1.041c6.886,4.957,12.526,3.12,12.877-3.256s.122-7.391,3.71-7.541,5.223-5.791,5.78-10.2,3.661-4.539,3.661-4.539S1144.578,356.669,1138.418,355.334Z" transform="translate(-1105.013 -354.578)" fill="#ff6984"/>
      <path id="Path_334" data-name="Path 334" d="M1141.369,360.659c-.412,2.14-1.217,7.481-4.9,9.24s-7.772.8-8.573,5.877-3.605,5.957-9.134,5.237c-4.751-.619-9.856,2.778-6.471,6.506,1.9-.554,4.566-2.6,9.355.85,6.886,4.957,12.526,3.12,12.877-3.256s.122-7.391,3.71-7.541,5.222-5.791,5.78-10.2c.447-3.531,2.525-4.317,3.335-4.49a2.064,2.064,0,0,0-.064-.739C1146.054,358.572,1141.781,358.519,1141.369,360.659Z" transform="translate(-1109.294 -357.422)" fill="url(#linear-gradient-18)"/>
      <path id="Path_335" data-name="Path 335" d="M1253.792,353.895a36.957,36.957,0,0,1-12,6.582c-7.909,2.757-5.216,9.187-.878,12.6s5.209,3.742,3.043,6.528.833,6.807,3.634,9.405.927,5.009.927,5.009,1.623,2.537,6.481-1.46c6.346-5.222-2.337-7.528-.106-13s5.63-7.435,1.69-11.016.357-3.749,1.939-9.816C1259.452,355.174,1256.385,352.065,1253.792,353.895Z" transform="translate(-1196.279 -353.353)" fill="#ff6984"/>
      <path id="Path_336" data-name="Path 336" d="M1317.992,474.413a4.5,4.5,0,0,0-2.986-.542,11.05,11.05,0,0,0-2.94,1.343c-1.295.606-2.142-.606-2.238-1.674s-.1-1.537-.983-1.313-.458,2.019-.647,3.154a11.257,11.257,0,0,0,0,3.337c.143,1.3-14.2,7.46-14.773,7.86s-9.174-14.566-13.171-19.772l1.525,17.53s6.887,10.806,9.552,11.742c1,.353,1.495-.234,3.826-1.869s12.893-9.584,14.385-10.674c1.778-1.3,2.543-.433,4.493-.774s3.774-3.976,3.3-5.211-2.236-1.869-1.19-2.136,1.734.719,2.665.956S1320.885,475.926,1317.992,474.413Z" transform="translate(-1226.428 -432.03)" fill="url(#linear-gradient)"/>
      <path id="Path_337" data-name="Path 337" d="M1251.278,361.212a35.9,35.9,0,0,1-9.482,4.714c-7.909,2.757-5.216,9.187-.878,12.6s5.209,3.742,3.043,6.528.833,6.807,3.633,9.405a6.214,6.214,0,0,1,.607.649,6.988,6.988,0,0,0,4.124-5.685c.161-1.6.358-3.32.584-4.841C1253.511,380.529,1249.314,370.911,1251.278,361.212Z" transform="translate(-1196.279 -358.803)" fill="url(#linear-gradient-18)"/>
      <path id="Path_338" data-name="Path 338" d="M1314.263,497.185c-2.728.417-1.544,3.748-2.521,4.1s-16.288,8.289-17.378,8.685-2.961-3.611-6.243-9.263l-4.062.378.355,4.086s6.887,10.807,9.552,11.743c1,.353,1.495-.234,3.826-1.869s12.893-9.584,14.385-10.674a3.772,3.772,0,0,1,1.285-.648,5.018,5.018,0,0,1,3.495-6.723C1318.034,496.659,1315.47,497,1314.263,497.185Z" transform="translate(-1229.065 -452.868)" fill="url(#linear-gradient)" style="mix-blend-mode: multiply;isolation: isolate"/>
      <path id="Path_339" data-name="Path 339" d="M1254.373,453.5c-1.848,1.166-.553,3.817.406,8.717a43.194,43.194,0,0,0,4.4,11.292s4.013,1.253,11.034-3.564c0,0-3.047-7.014-5.17-10.712C1263.714,456.92,1256.634,452.075,1254.373,453.5Z" transform="translate(-1207.848 -422.625)" fill="url(#linear-gradient-22)"/>
      <path id="Path_340" data-name="Path 340" d="M1224.817,364.7c-3.044-.852-5.715,4.282,1.4,7.951l3.2-5.266S1228.346,365.686,1224.817,364.7Z" transform="translate(-1185.854 -361.156)" fill="#263093"/>
      <path id="Path_341" data-name="Path 341" d="M1268.262,365.976l5.907,1.786s1.382-1.456,1.463-5.113C1275.7,359.494,1270.056,358.189,1268.262,365.976Z" transform="translate(-1218.12 -358.083)" fill="#242b96"/>
      <path id="Path_342" data-name="Path 342" d="M1238.976,364.221c-4.569-1.763-10.741,4.468-11.51,8.726s2.428,11.342,2.19,14.421l12.006-17.91S1245.835,366.867,1238.976,364.221Z" transform="translate(-1189.772 -360.677)" fill="#ff6984"/>
      <g id="Group_42" data-name="Group 42" transform="translate(23.214 25.417)">
        <g id="Group_41" data-name="Group 41">
          <path id="Path_343" data-name="Path 343" d="M1191.055,436.274c5.327,2.816,15.654,9.359,15.654,9.359l2.161-2.5c4.473,2.5,4.478,4.686,5.7,10.092,4.342,19.186-1.584,14.627-7.279,33.1-1.963,6.369-30.266,11.405-26.326-.874,1.922-5.989,3.953-16.85,1.934-23.9s-4.4-9.612,5.036-18.326Z" transform="translate(-1180.591 -436.274)" fill="url(#linear-gradient-23)"/>
        </g>
      </g>
      <path id="Path_344" data-name="Path 344" d="M1192.117,436.274,1189,443.222c-9.44,8.714-7.055,11.273-5.036,18.326s.9-5.86,3.441-10.389,9.63-1.335,11.5-10.367l-.2-.744C1196.331,438.628,1193.934,437.234,1192.117,436.274Z" transform="translate(-1158.44 -410.857)" fill="#c2dbff" style="mix-blend-mode: multiply;isolation: isolate"/>
      <g id="Group_44" data-name="Group 44" transform="translate(37.821 16.784)">
        <path id="Path_345" data-name="Path 345" d="M1233.549,413.813c0-3.051-.515-2.84-.515-2.84-.279-.862.118-2.361-1.48-2.8-3.135-.855-2.634,6.874-1.1,6.76,1.969-.147-2.277,5.836-2.277,5.836-.645,2.218,11.485,5.33,11.485,5.33-.456-3.189,1.247-6.813,1.7-9.092C1241.712,415.257,1236.4,413.574,1233.549,413.813Z" transform="translate(-1228.147 -408.11)" fill="url(#linear-gradient)"/>
        <g id="Group_43" data-name="Group 43" clip-path="url(#clip-path)">
          <path id="Path_346" data-name="Path 346" d="M1228.871,390.916c-14.072,23.648,1.685,23.512,4.857,24.1l-2.452-8.128Z" transform="translate(-1224.66 -396.187)" fill="url(#linear-gradient)" style="mix-blend-mode: multiply;isolation: isolate"/>
        </g>
      </g>
      <path id="Path_348" data-name="Path 348" d="M1265.593,453.144a7.459,7.459,0,0,0-.324,4.153,3.569,3.569,0,0,0,2.05-2.076C1267.992,453.561,1265.653,452.9,1265.593,453.144Z" transform="translate(-1215.938 -422.521)" fill="#3486fe"/>
      <path id="Path_349" data-name="Path 349" d="M1235.8,413.87c-.41.882-.609,4.182,1.35,3.741,2.426-.546.405-2.834.405-2.834C1236.51,412.793,1236.208,412.988,1235.8,413.87Z" transform="translate(-1195.44 -394.878)" fill="url(#linear-gradient)" style="mix-blend-mode: multiply;isolation: isolate"/>
      <g id="Group_47" data-name="Group 47" transform="translate(42.031 8.685)">
        <g id="Group_46" data-name="Group 46">
          <path id="Path_350" data-name="Path 350" d="M1243.717,386.716c-1.345,6.794-2.921,9.263-.892,12.652,2.982,4.98,4.058,5.1,6.629,5.552,2.515.445,6.345-5.922,7.012-7.226,1.062-2.077.227-2.267.764-4.5a20.993,20.993,0,0,0,1.138-4.32C1259.446,381.313,1245.366,378.388,1243.717,386.716Z" transform="translate(-1241.855 -381.688)" fill="url(#linear-gradient)"/>
          <g id="Group_45" data-name="Group 45" clip-path="url(#clip-path-2)">
            <path id="Path_351" data-name="Path 351" d="M1224.038,366.454v13.939c-1.822,1.274-10.678-.661-8.376,2.248,7.753,9.8,16.443,12.448,15.382,10.38-1.945-3.8-2.2-5.457-1.905-6.5,1.9-6.741-.9-7.423,5.148-9.377,1.849-.6,4.733,4.278,6.677,4.272,1.434,0,3.693-4.384,3.693-4.384l-4.639-12.5Z" transform="translate(-1223.444 -369.789)" fill="url(#linear-gradient)" style="mix-blend-mode: multiply;isolation: isolate"/>
          </g>
        </g>
      </g>
      <g id="Group_49" data-name="Group 49" transform="translate(42.361 4.283)">
        <path id="Path_353" data-name="Path 353" d="M1243.192,382.332c1.407,1.06,3.316.612,4.633-1.38s3.44-7.884,7.6-5.044c.776.529,2.729-1.77,1.695,3.348-.64,3.171.195,6.485,1.766,9.664s2.354,3.611,1.389,7.6c2.166-3.687,4.616-4.946,3.271-10.277-1.078-4.275,3.112-9.274,1.583-13.025s-8.423-7.9-13.512-4.811c0,0-2.855-1.191-5.535,1.759C1241.637,375.061,1243.192,382.332,1243.192,382.332Z" transform="translate(-1242.929 -367.325)" fill="#ff6984"/>
        <g id="Group_48" data-name="Group 48" clip-path="url(#clip-path-3)">
          <path id="Path_354" data-name="Path 354" d="M1263.571,387.032c1.908-6.9-5.069-11.8-7.2-10.721-.749.378,3.437,4.046.427,3.711s-4.742,6.285-8.448,9.824l14.169,6.953s2.9,1.4,1.514,5.85C1267.945,397.989,1262.364,391.4,1263.571,387.032Z" transform="translate(-1246.686 -373.454)" fill="url(#linear-gradient-18)"/>
        </g>
      </g>
      <path id="Path_356" data-name="Path 356" d="M1219.286,439.4c.333-.934.781-1.587,1.393-3.3-2.272-.84-6.029-1.193-6.31-.559-.8,1.809,2.268,4.218,6.411,6.181C1220.779,441.722,1218.9,440.476,1219.286,439.4Z" transform="translate(-1180.691 -410.124)" fill="#3486fe"/>
      <path id="Path_357" data-name="Path 357" d="M1190.131,528.861a.747.747,0,0,0,.563.687C1190.25,528.34,1189.958,527.95,1190.131,528.861Z" transform="translate(-1163.952 -474.716)" fill="#c2dbff" style="mix-blend-mode: multiply;isolation: isolate"/>
      <path id="Path_358" data-name="Path 358" d="M1203.572,522.491c-3.712-.512-1.723-10.938-5.1-14.962,0,0-6.982,8.018-9.1,7.573,1.226,3.341,3.6,12.94.476,18.563a15.779,15.779,0,0,0-1.672,7.285c4.44,3.874,20.571-.822,23.179-6.4C1218.233,519.859,1208.8,523.214,1203.572,522.491Z" transform="translate(-1162.638 -460.27)" fill="#c2dbff" style="mix-blend-mode: multiply;isolation: isolate"/>
      <path id="Path_359" data-name="Path 359" d="M1208.14,501.4l-7.662.677a144.841,144.841,0,0,1-6.7-17.24c-2.041-7.225-4.531-18.034-4.531-18.034-7.594,3.392-8.56,8.273-6.466,17.2,1.308,5.582,5.624,13.535,8.694,19.219,1.842,3.411,2.277,6.269,4.028,6.57,11.242,1.933,22.785-3.684,38.965-8.027a6.628,6.628,0,0,0-1.357-3.945S1215.126,500.785,1208.14,501.4Z" transform="translate(-1158.225 -432.03)" fill="url(#linear-gradient-30)"/>
      <path id="Path_360" data-name="Path 360" d="M1203.236,549.32c-1.677-1.406-7.917-10.6-11.179-19.324l-3.714,1.241c1.861,5.116,5.164,11.209,7.651,15.814,1.842,3.411,2.277,6.269,4.028,6.57,7.519,1.293,15.176-.793,24.262-3.615C1216.853,550.787,1204.913,550.726,1203.236,549.32Z" transform="translate(-1162.747 -475.85)" fill="url(#linear-gradient)" style="mix-blend-mode: multiply;isolation: isolate"/>
      <path id="Path_361" data-name="Path 361" d="M1192.4,471.629c.084-.246-2.443-7.179-2.443-7.179-7.214,2.34-8.138,5.549-8.138,10.541a43.177,43.177,0,0,0,2.15,11.924s3.7,2,11.515-1.387C1195.48,485.529,1192.312,471.875,1192.4,471.629Z" transform="translate(-1158.225 -430.396)" fill="url(#linear-gradient-32)"/>
      <path id="Path_362" data-name="Path 362" d="M1181.815,475.015a43.356,43.356,0,0,0,2.15,11.95,8.23,8.23,0,0,0,4.056.565c-.772-3.963-2.6-16.378,3.168-19.624-.616-1.751-1.236-3.456-1.236-3.456C1182.739,466.8,1181.815,470.011,1181.815,475.015Z" transform="translate(-1158.225 -430.396)" fill="#c2dbff" style="mix-blend-mode: multiply;isolation: isolate"/>
      <path id="Path_363" data-name="Path 363" d="M1364.008,531.553a.619.619,0,0,0-.693-.183l-6.587,2.393a4.17,4.17,0,0,0-2.24,1.926l-7.445,13.684a.679.679,0,0,0,.231.839c.127.118.744.924.949.837l6.418-3.695a4.171,4.171,0,0,0,2.006-1.8L1365,532.769C1365.139,532.515,1364.166,531.738,1364.008,531.553Z" transform="translate(-1272.654 -476.776)" fill="#2848bd"/>
      <path id="Path_364" data-name="Path 364" d="M1366.028,534.1l-6.587,2.392a4.171,4.171,0,0,0-2.24,1.926l-7.445,13.684a.628.628,0,0,0,.8.876l6.8-2.9a4.169,4.169,0,0,0,2.006-1.8l7.431-13.288A.627.627,0,0,0,1366.028,534.1Z" transform="translate(-1274.528 -478.669)" fill="#172182"/>
      <path id="Path_365" data-name="Path 365" d="M1358.728,557.689c.414-1.165-.254-1.384-.659-1.187s-.347,1.342-1.413,2.065-5.114.661-4.512-.848.508-2.5-.63-1.47-1.4,2.068-3.791,3.5c0,0-1.03,3.08,1.427,3.75s6.921.742,7.842.287.849-2.109,1.54-3.178a3.659,3.659,0,0,0,.612-2.638C1359,557.6,1358.728,557.689,1358.728,557.689Z" transform="translate(-1273.026 -493.763)" fill="url(#linear-gradient-33)"/>
    </g>
    <g id="Group_66" data-name="Group 66" transform="translate(571.546 355.762)">
      <path id="Path_366" data-name="Path 366" d="M798.6,485.83c.259-9.9-2.128-10.509-2.776-9.12-4.992,10.71-8.487,26.727-8.637,29.463s-1.065,2.624-.729,3.836-3.786.448-2.187,3.638c1.043,2.083,9.915,11.121,13.669,7.409s2.092-12.006,2.733-13.887a7.5,7.5,0,0,0,.334-3.486A64.325,64.325,0,0,1,798.6,485.83Z" transform="translate(-734.443 -440.922)" fill="#c2dbff"/>
      <g id="Group_52" data-name="Group 52" transform="translate(0 181.545)">
        <path id="Path_367" data-name="Path 367" d="M654.833,956.873c-.578,2.374-1.031,11.109-2.712,11.82s-11.469,1.953-16.161,1.946-10.72-3.076-11.584-4.626c-1.545-2.772-2.806-4.929,1.1-4.542,5.675.561,14.708-2.512,16.8-6.585S654.833,956.873,654.833,956.873Z" transform="translate(-622.881 -953.478)" fill="url(#linear-gradient-3)"/>
        <g id="Group_51" data-name="Group 51" clip-path="url(#clip-path-4)">
          <path id="Path_368" data-name="Path 368" d="M645.629,981.437c-3.993,2.24-8.06,2.687-11.722,3.194s-7.675,1.456-9.969,1.3c-3.826-.268-10.351-4.3-11.6-6.995-1.086-2.35-5.125,1.341-5.125,1.341l9.109,9.2,25.165.086s8.275-2.273,8-2.647S645.629,981.437,645.629,981.437Z" transform="translate(-612.027 -970.586)" fill="#2848bd"/>
        </g>
      </g>
      <g id="Group_54" data-name="Group 54" transform="translate(24.242 163.219)">
        <path id="Path_370" data-name="Path 370" d="M726.909,895.736c.263,2.217,1.878,6.093.859,7.258s-11.956,6.626-15.371,8.18-9.367.066-10.371-.67,1.539-3.076,5.19-5.581,7.9-5.27,8.257-9.441S726.909,895.736,726.909,895.736Z" transform="translate(-701.806 -893.692)" fill="url(#linear-gradient-4)"/>
        <g id="Group_53" data-name="Group 53" clip-path="url(#clip-path-5)">
          <path id="Path_371" data-name="Path 371" d="M724.987,910.4c-2.26,3.238-7.266,5.306-9.785,6.956s-8.236,4.858-10.076,4.79-3-1.853-5.324-1.807a3.405,3.405,0,0,0-3.1,1.839L705.982,927l18.332-8.293s5.366-4.69,5.057-4.916S724.987,910.4,724.987,910.4Z" transform="translate(-698.273 -905.281)" fill="#2848bd"/>
        </g>
      </g>
      <path id="Path_373" data-name="Path 373" d="M767.165,642.733c-1.978,1.5-16.678,6.427-31.255,16.545-15.215,10.561-12.5,13-11.45,18.08,2.138,10.386,9.772,29.77,7.854,40.083C731.924,719.532,742,720.4,742,719c0-1.49.137-3,.43-7.27,2.042-29.776-4.808-29.73-2.146-31.8,12.33-9.608,41.995-12.491,52.8-23.978C808.915,639.113,777.784,634.684,767.165,642.733Z" transform="translate(-692.652 -553.737)" fill="url(#linear-gradient-36)"/>
      <path id="Path_374" data-name="Path 374" d="M749.674,652.77c-2.373.733-7.751,6.5-27.731,18.785-15.781,9.7-19.279,13.025-19.73,19.472-.924,13.192-5.618,40.8-10.886,51.506-.9,1.837,8.5,8.081,10.886,3.619,20.4-38.118,15.375-50.654,18.586-51.708a284.313,284.313,0,0,0,47.034-20.664c6.377-3.593,6.94-16.254,6.1-19.638C772.078,646.7,758.434,650.064,749.674,652.77Z" transform="translate(-670.261 -561.211)" fill="url(#linear-gradient-37)"/>
      <g id="Group_56" data-name="Group 56" transform="translate(65.075 22.211)">
        <g id="Group_55" data-name="Group 55" clip-path="url(#clip-path-6)">
          <path id="Path_375" data-name="Path 375" d="M832.089,436.23c-.047.241,1.139,11.381,3.876,10.949s2.982-2.923.817-11.726C836.782,435.453,832.136,435.989,832.089,436.23Z" transform="translate(-832.905 -434.907)" fill="none"/>
        </g>
      </g>
      <path id="Path_377" data-name="Path 377" d="M870.4,496.5c-2.543,3.434.084,8.315-.886,13.285-1.058,5.421-2.23,12.958-2.23,12.958-3.912-.2-11.461-.309-18.043-.536-2.618-.09-4.211,3.688-2.124,4.71,6.057,2.968,13.536,2.99,18.339,4.169,4.158,1.02,5.311.363,7.046-3.532,1.348-3.027,1.674-9.07,3.712-15.083s5.188-14.8,1.617-18.7S872.946,493.068,870.4,496.5Z" transform="translate(-777.58 -451.901)" fill="#95bde5"/>
      <path id="Path_378" data-name="Path 378" d="M840.8,443.69,830.724,448l-5.905,14.043,25.736-12.624-1.085-5.379C846.825,442.669,840.8,443.69,840.8,443.69Z" transform="translate(-762.794 -418.155)" fill="#001f99"/>
      <g id="Group_63" data-name="Group 63" transform="translate(53.881 0)">
        <g id="Group_58" data-name="Group 58">
          <path id="Path_379" data-name="Path 379" d="M801.241,379.233c-6.281-4.729-1.178-9.519,3.082-13.94,1.688-1.751,8.995-6.893,12.864-2.072,2.424-.706,4.575.269,6.342,5.555,2.206,6.6.245,9.764.434,15.476l-18.726-6.361Z" transform="translate(-798.301 -361.212)" fill="url(#linear-gradient-5)"/>
          <g id="Group_57" data-name="Group 57" clip-path="url(#clip-path-7)">
            <path id="Path_380" data-name="Path 380" d="M818.28,372.08a12.527,12.527,0,0,1,3.266-5.183c.082-.905-.926-1.584-2.844-.153-2.416,1.8-2.356,3.708-4.332,7.728-1.8,3.663-2.753,3-6.606,5.5a5.23,5.23,0,0,0-1.616,2.8l6.638-.273,12.007.938.754-.295C823.165,380.408,817.864,375.979,818.28,372.08Z" transform="translate(-803.739 -364.475)" fill="#040956"/>
          </g>
        </g>
        <g id="Group_60" data-name="Group 60" transform="translate(14.303 14.66)">
          <path id="Path_382" data-name="Path 382" d="M849.651,414.7c2.161-1.563,3.009-2.118,3.009-2.118.165-.859-.125-2.734,1.462-3.394,3.112-1.295,3.7,6.107,2.1,6.235-2.052.165,2.071,8.366,6.764,10.754,2.91,1.481-10.406,6.142-13.806,5.55-5.888-1.026.062-9.87-3.919-12.654C843.8,418.05,846.679,414.916,849.651,414.7Z" transform="translate(-844.868 -409.039)" fill="url(#linear-gradient-6)"/>
          <g id="Group_59" data-name="Group 59" clip-path="url(#clip-path-8)">
            <path id="Path_383" data-name="Path 383" d="M853.676,412.333c7.6.122,8.541,12,8.541,12,8.843-1.975,18.573-4.625-2.167-29.03C860.051,395.3,845.707,412.206,853.676,412.333Z" transform="translate(-849.3 -399.512)" fill="url(#linear-gradient)" style="mix-blend-mode: multiply;isolation: isolate"/>
          </g>
        </g>
        <path id="Path_385" data-name="Path 385" d="M872.846,416.42c-.015.582.138,1.834,1,2.113,1.957.634,1.408-2.981.859-3.753S872.9,414.188,872.846,416.42Z" transform="translate(-849.949 -398.073)" fill="#95bde5" style="mix-blend-mode: multiply;isolation: isolate"/>
        <g id="Group_62" data-name="Group 62" transform="translate(5.553 12.779)">
          <path id="Path_386" data-name="Path 386" d="M828.839,407.309c2.6,3.315,6.68,3.392,5.069,6.916-2.367,5.18-3.46,5.456-6.048,6.284-2.531.81-7-3.569-7.69-4.808-1.366-2.473-1.427-3.971-2-5.1-.647-1.267-1.284-1.217-1.789-3.918a10.788,10.788,0,0,0,4.3-2.747c1.175-1.236,2.712-1.321,4.509-.5C827.022,404.277,826.984,404.939,828.839,407.309Z" transform="translate(-816.38 -402.902)" fill="url(#linear-gradient-7)"/>
          <g id="Group_61" data-name="Group 61" clip-path="url(#clip-path-9)">
            <path id="Path_387" data-name="Path 387" d="M819.389,393.836c-1.961,8.941,9.257,1.835,8.9,4.505-.836,6.2,2.446,5.937,2.15,8.126a12.91,12.91,0,0,1-4.507,7.886l5.883-3.809c-1.237-.547,12.655-.605,11.09-3.227-1.605-2.688,2.649-4.18,2.6-5.493C844.6,380.131,820.331,389.544,819.389,393.836Z" transform="translate(-818.306 -392.622)" fill="url(#linear-gradient)" style="mix-blend-mode: multiply;isolation: isolate"/>
          </g>
        </g>
      </g>
      <path id="Path_389" data-name="Path 389" d="M843.544,466.81c-13.766,5.433-13.117-2.684-13.117-2.684l-8.786,15.157L826.8,526.2a37.555,37.555,0,0,0,37.77,3.9S857.31,461.377,843.544,466.81Z" transform="translate(-760.592 -432.58)" fill="#c2dbff"/>
      <path id="Path_390" data-name="Path 390" d="M839.355,485.684c-.931-6.194-.251-17.419-.251-17.419s.017-6.874-1.88-7.654c-1.444-.593-3.527,9.374-3.527,9.374s3.516,40.575,1.837,49.662c-.741,4.01-.386,4.1-.386,4.1s7.683-7.689,6.394-14.8S840.286,491.877,839.355,485.684Z" transform="translate(-768.945 -430.125)" fill="#c2dbff" style="mix-blend-mode: multiply;isolation: isolate"/>
      <path id="Path_391" data-name="Path 391" d="M901.987,478.012c.133-4.5-2.951-22.554-7.108-24.087-4.456-1.644-4.912-2.1-6.221-3.183s-5.165-5.089-5.165-5.089-2.076,5.169-9.568,8.68c0,0,2.656,5.272,2.92,7.7.385,3.533-3.7-24.4,5.252,64.752,0,0,21.943-4.11,20.983-10.957C900.927,500.449,901.253,502.894,901.987,478.012Z" transform="translate(-796.817 -419.77)" fill="#2848bd"/>
      <path id="Path_392" data-name="Path 392" d="M843.415,458.942a1.307,1.307,0,0,0,.194-.371A3.874,3.874,0,0,0,843.415,458.942Z" transform="translate(-775.678 -428.728)" fill="#0d146e"/>
      <path id="Path_393" data-name="Path 393" d="M824.158,459.781c-.384.565-1.5,1.72-4.691,3.083-4.29,1.834-3.192,12.065-3.236,16.8-.1,10.912,4.536,23.245,4.977,34.409.288,7.286,1.654,4.613-5.587,9.545v6.608c4.031-1.161,9.753-9.694,9.79-14.444.142-18.626-1.005-30.469.121-45.5.064-.852-1.689-8.031-1.689-8.031A3.688,3.688,0,0,1,824.158,459.781Z" transform="translate(-756.421 -429.567)" fill="#0d146e"/>
      <path id="Path_394" data-name="Path 394" d="M892.585,512.9c-6.559,5.391-6.047,21.8-6.554,24.109s-1.371,3.031-1.178,4.385.693,2.3-.741,2.375c-1.924.1-.5,2.355-3.334,2.084s-3.951-4.3-4.3-.311c-.3,3.49,7.381,27.8,7.381,27.8,2.858-.893,9.071-2.317,9.071-2.317-1.788-8.713.94-20.713.942-22.085.006-3.1,2.9-9.1,2.9-9.1s1.926-8.228,3.341-16.134C901.658,515.121,893.436,512.2,892.585,512.9Z" transform="translate(-798.581 -466.336)" fill="#0d146e"/>
      <path id="Path_395" data-name="Path 395" d="M875.855,469.059l-3.315,1.477s1.317,6.357,1.605,6.988a17.956,17.956,0,0,1,.733,4.784c-.072,1.15.755,39.8.755,39.8s5.412,18.29,5.451,16.232,9.467-58.885,9.243-63.36C890.328,474.976,885.667,474.64,875.855,469.059Z" transform="translate(-795.857 -436.001)" fill="#0d146e"/>
      <g id="Group_65" data-name="Group 65" transform="translate(76.165 36.954)">
        <path id="Path_396" data-name="Path 396" d="M888.678,481.858c-11.773,6.1-10.2,27.085-10.95,29.826s-3.183,4.028-2.711,5.665-.073,3.123-2.74,3.134c-3.577.014-.228,13.716,7.908,13.725s7.893-2.82,7.753-4.939c-.246-3.719,2.719-4.776,1.766-6.708s-.459-2.853,1.136-4.171a3.766,3.766,0,0,0,1.245-3.341s2.9-9.764,4.885-19.171C899.124,485.657,890.206,481.066,888.678,481.858Z" transform="translate(-870.852 -481.77)" fill="#fff"/>
        <g id="Group_64" data-name="Group 64" clip-path="url(#clip-path-10)">
          <path id="Path_397" data-name="Path 397" d="M833.22,482.22l-6.291-1.892-33.06,37.421,37.291,22.32s4.1-8.667,3.259-11.162-7.538-7.655-6.559-8.351,6.054,1.611,6.054.939-2.187-2.519-3.173-4.617.317-2.217,2.921-2.519,2.692-13.265,4.038-19.478S838.413,484.106,833.22,482.22Z" transform="translate(-817.514 -480.769)" fill="#c2dbff"/>
        </g>
      </g>
      <path id="Path_399" data-name="Path 399" d="M769.489,595.755l-9.921,14.078,6.824,1.6s14.688-7.671,13.533-11.066S772.96,594.494,769.489,595.755Z" transform="translate(-717.584 -523.63)" fill="url(#linear-gradient)"/>
      <path id="Path_400" data-name="Path 400" d="M769.489,595.755l-9.921,14.078,6.824,1.6s14.688-7.671,13.533-11.066S772.96,594.494,769.489,595.755Z" transform="translate(-717.584 -523.63)" fill="url(#linear-gradient)" style="mix-blend-mode: multiply;isolation: isolate"/>
      <path id="Path_401" data-name="Path 401" d="M754.84,609.476a4.171,4.171,0,0,0-2.24-1.926l-6.587-2.392a.619.619,0,0,0-.693.183c-.158.185-1.13.962-.988,1.216l8.349,12.784a4.167,4.167,0,0,0,2.006,1.8l6.418,3.695c.205.087.821-.718.948-.836a.678.678,0,0,0,.231-.839Z" transform="translate(-707.018 -530.354)" fill="#2848bd"/>
      <path id="Path_402" data-name="Path 402" d="M754.028,612.2a4.169,4.169,0,0,0-2.24-1.926l-6.587-2.392a.627.627,0,0,0-.764.895l7.431,13.288a4.172,4.172,0,0,0,2.007,1.8l6.8,2.895a.628.628,0,0,0,.8-.876Z" transform="translate(-707.045 -532.247)" fill="#172182"/>
      <path id="Path_403" data-name="Path 403" d="M797.233,622.218c-2.616.294-19.028,2.6-23.138,3.42s-5,.616-8.4-1.4-4-1.651-3.628-.367,3.2,1.816,2.073,2.935-4.146.257-4.146.257c-1.486-.536-4.554-1.21-4.109.184s-.259,4.366,3.221,6.567,6.467,1.56,8.293.367c5.726-3.742,11.353-2.122,18.6-2.122,4.011,0,21.449-.639,20.561-2.693S800.712,621.827,797.233,622.218Z" transform="translate(-715 -542.199)" fill="url(#linear-gradient)"/>
      <path id="Path_404" data-name="Path 404" d="M797.8,629.813c-2.616.294-16.706,1.928-20.816,2.743s-6.334.13-7.463,1.248-9.009,1.458-9.009,1.458c-1.486-.536-5.061-4.154-4.617-2.76s-.259,4.366,3.221,6.567,6.467,1.56,8.293.367c5.726-3.742,11.353-2.122,18.6-2.122,4.011,0,21.449-.639,20.561-2.693S801.278,629.421,797.8,629.813Z" transform="translate(-715.012 -547.456)" fill="url(#linear-gradient)" style="mix-blend-mode: multiply;isolation: isolate"/>
    </g>
    <path id="Path_405" data-name="Path 405" d="M1071.712,665.987l-77.54-28.165c-2.53-.919-4.581.7-4.581,3.615v27.753l-.925,15.445.925-.379,8.946-11.817,73.175,26.579c2.53.919,4.581-.7,4.581-3.615V672.93A7.781,7.781,0,0,0,1071.712,665.987Z" transform="translate(-304.768 -197.093)" fill="#001f99"/>
    <path id="Path_406" data-name="Path 406" d="M1070.787,667.223l-77.539-28.165c-2.53-.919-4.581.7-4.581,3.615v42.82l8.945-11.817,73.175,26.579c2.53.919,4.581-.7,4.581-3.615V674.166A7.78,7.78,0,0,0,1070.787,667.223Z" transform="translate(-304.768 -197.95)" fill="url(#linear-gradient-47)"/>
    <g id="Group_67" data-name="Group 67" transform="translate(703.038 392.436)" style="mix-blend-mode: multiply;isolation: isolate">
      <path id="Path_407" data-name="Path 407" d="M1061.509,481.445c-5.814-2.112-10.527,1.607-10.527,8.307s4.713,13.842,10.527,15.954,10.527-1.607,10.527-8.307S1067.323,483.557,1061.509,481.445Z" transform="translate(-1050.982 -480.854)" fill="#fff" opacity="0"/>
      <path id="Path_408" data-name="Path 408" d="M1061.683,481.744c-5.771-2.1-10.45,1.6-10.45,8.246s4.678,13.741,10.45,15.838,10.45-1.6,10.45-8.246S1067.454,483.84,1061.683,481.744Z" transform="translate(-1051.156 -481.064)" fill="#fefeff" opacity="0.023"/>
      <path id="Path_409" data-name="Path 409" d="M1061.856,482.043c-5.729-2.081-10.372,1.584-10.372,8.186s4.644,13.64,10.372,15.721,10.373-1.584,10.373-8.185S1067.585,484.124,1061.856,482.043Z" transform="translate(-1051.33 -481.274)" fill="#fdfeff" opacity="0.045"/>
      <path id="Path_410" data-name="Path 410" d="M1062.03,482.343c-5.686-2.065-10.3,1.572-10.3,8.125s4.609,13.539,10.3,15.6,10.3-1.572,10.3-8.125S1067.716,484.408,1062.03,482.343Z" transform="translate(-1051.503 -481.485)" fill="#fcfdff" opacity="0.068"/>
      <path id="Path_411" data-name="Path 411" d="M1062.2,482.642c-5.644-2.05-10.219,1.561-10.219,8.064s4.575,13.438,10.219,15.488,10.219-1.561,10.219-8.064S1067.847,484.692,1062.2,482.642Z" transform="translate(-1051.677 -481.695)" fill="#fbfdff" opacity="0.091"/>
      <path id="Path_412" data-name="Path 412" d="M1062.377,482.941c-5.6-2.035-10.142,1.549-10.142,8s4.541,13.336,10.142,15.371,10.142-1.549,10.142-8S1067.978,484.975,1062.377,482.941Z" transform="translate(-1051.85 -481.906)" fill="#fafcff" opacity="0.114"/>
      <path id="Path_413" data-name="Path 413" d="M1062.551,483.24c-5.559-2.019-10.065,1.537-10.065,7.943s4.506,13.235,10.065,15.254,10.065-1.537,10.065-7.943S1068.109,485.259,1062.551,483.24Z" transform="translate(-1052.024 -482.116)" fill="#f9fcff" opacity="0.136"/>
      <path id="Path_414" data-name="Path 414" d="M1062.725,483.539c-5.516-2-9.988,1.525-9.988,7.882s4.472,13.134,9.988,15.138,9.988-1.525,9.988-7.882S1068.241,485.543,1062.725,483.539Z" transform="translate(-1052.198 -482.327)" fill="#f8fbff" opacity="0.159"/>
      <path id="Path_415" data-name="Path 415" d="M1062.9,483.839c-5.474-1.988-9.911,1.513-9.911,7.821s4.437,13.033,9.911,15.021,9.911-1.514,9.911-7.821S1068.371,485.827,1062.9,483.839Z" transform="translate(-1052.371 -482.537)" fill="#f7fafe" opacity="0.182"/>
      <path id="Path_416" data-name="Path 416" d="M1063.072,484.137c-5.431-1.973-9.834,1.5-9.834,7.76s4.4,12.932,9.834,14.9,9.834-1.5,9.834-7.761S1068.5,486.11,1063.072,484.137Z" transform="translate(-1052.545 -482.747)" fill="#f6fafe" opacity="0.205"/>
      <path id="Path_417" data-name="Path 417" d="M1063.246,484.437c-5.389-1.957-9.757,1.49-9.757,7.7s4.368,12.83,9.757,14.787,9.757-1.49,9.757-7.7S1068.634,486.394,1063.246,484.437Z" transform="translate(-1052.719 -482.958)" fill="#f5f9fe" opacity="0.227"/>
      <path id="Path_418" data-name="Path 418" d="M1063.419,484.736c-5.346-1.942-9.68,1.478-9.68,7.639s4.334,12.729,9.68,14.671,9.68-1.478,9.68-7.639S1068.765,486.678,1063.419,484.736Z" transform="translate(-1052.892 -483.169)" fill="#f4f9fe" opacity="0.25"/>
      <path id="Path_419" data-name="Path 419" d="M1063.593,485.035c-5.3-1.926-9.6,1.466-9.6,7.578s4.3,12.628,9.6,14.554,9.6-1.466,9.6-7.578S1068.9,486.961,1063.593,485.035Z" transform="translate(-1053.066 -483.379)" fill="#f3f8fe" opacity="0.273"/>
      <path id="Path_420" data-name="Path 420" d="M1063.766,485.334c-5.261-1.911-9.526,1.455-9.526,7.517s4.265,12.527,9.526,14.438,9.526-1.455,9.526-7.518S1069.027,487.245,1063.766,485.334Z" transform="translate(-1053.239 -483.589)" fill="#f2f8fe" opacity="0.295"/>
      <path id="Path_421" data-name="Path 421" d="M1063.94,485.633c-5.219-1.9-9.449,1.443-9.449,7.457s4.23,12.426,9.449,14.321,9.449-1.443,9.449-7.457S1069.158,487.529,1063.94,485.633Z" transform="translate(-1053.413 -483.8)" fill="#f1f7fe" opacity="0.318"/>
      <path id="Path_422" data-name="Path 422" d="M1064.114,485.933c-5.176-1.88-9.372,1.431-9.372,7.4s4.2,12.324,9.372,14.2,9.372-1.431,9.372-7.4S1069.29,487.813,1064.114,485.933Z" transform="translate(-1053.587 -484.011)" fill="#f0f6fe" opacity="0.341"/>
      <path id="Path_423" data-name="Path 423" d="M1064.287,486.232c-5.133-1.865-9.3,1.42-9.3,7.335s4.162,12.223,9.3,14.088,9.3-1.42,9.3-7.335S1069.42,488.1,1064.287,486.232Z" transform="translate(-1053.76 -484.221)" fill="#eff6fe" opacity="0.364"/>
      <path id="Path_424" data-name="Path 424" d="M1064.461,486.531c-5.091-1.849-9.218,1.408-9.218,7.274s4.127,12.122,9.218,13.971,9.218-1.408,9.218-7.274S1069.552,488.38,1064.461,486.531Z" transform="translate(-1053.934 -484.431)" fill="#eef5fe" opacity="0.386"/>
      <path id="Path_425" data-name="Path 425" d="M1064.634,486.83c-5.049-1.834-9.141,1.4-9.141,7.213s4.092,12.021,9.141,13.854,9.141-1.4,9.141-7.214S1069.682,488.664,1064.634,486.83Z" transform="translate(-1054.108 -484.642)" fill="#edf5fe" opacity="0.409"/>
      <path id="Path_426" data-name="Path 426" d="M1064.808,487.129c-5.006-1.818-9.064,1.384-9.064,7.153s4.058,11.919,9.064,13.738,9.064-1.384,9.064-7.153S1069.814,488.948,1064.808,487.129Z" transform="translate(-1054.281 -484.852)" fill="#ecf4fe" opacity="0.432"/>
      <path id="Path_427" data-name="Path 427" d="M1064.982,487.428c-4.964-1.8-8.987,1.373-8.987,7.092s4.023,11.818,8.987,13.621,8.987-1.372,8.987-7.092S1069.945,489.231,1064.982,487.428Z" transform="translate(-1054.455 -485.063)" fill="#ebf4fe" opacity="0.455"/>
      <path id="Path_428" data-name="Path 428" d="M1065.155,487.728c-4.921-1.787-8.91,1.361-8.91,7.031s3.989,11.717,8.91,13.5,8.91-1.361,8.91-7.031S1070.076,489.515,1065.155,487.728Z" transform="translate(-1054.628 -485.273)" fill="#eaf3fe" opacity="0.477"/>
      <path id="Path_429" data-name="Path 429" d="M1065.329,488.027c-4.879-1.772-8.833,1.349-8.833,6.971s3.955,11.616,8.833,13.388,8.833-1.349,8.833-6.971S1070.208,489.8,1065.329,488.027Z" transform="translate(-1054.802 -485.484)" fill="#eaf3fe" opacity="0.5"/>
      <path id="Path_430" data-name="Path 430" d="M1065.5,488.326c-4.836-1.757-8.756,1.337-8.756,6.91s3.921,11.515,8.756,13.271,8.756-1.337,8.756-6.91S1070.338,490.083,1065.5,488.326Z" transform="translate(-1054.976 -485.694)" fill="#e9f2fd" opacity="0.523"/>
      <path id="Path_431" data-name="Path 431" d="M1065.676,488.625c-4.793-1.741-8.679,1.325-8.679,6.849s3.886,11.413,8.679,13.154,8.679-1.325,8.679-6.849S1070.469,490.366,1065.676,488.625Z" transform="translate(-1055.149 -485.905)" fill="#e8f1fd" opacity="0.545"/>
      <path id="Path_432" data-name="Path 432" d="M1065.85,488.924c-4.751-1.725-8.6,1.314-8.6,6.789s3.851,11.312,8.6,13.037,8.6-1.313,8.6-6.788S1070.6,490.65,1065.85,488.924Z" transform="translate(-1055.323 -486.115)" fill="#e7f1fd" opacity="0.568"/>
      <path id="Path_433" data-name="Path 433" d="M1066.023,489.224c-4.708-1.71-8.525,1.3-8.525,6.728s3.817,11.211,8.525,12.921,8.525-1.3,8.525-6.728S1070.732,490.934,1066.023,489.224Z" transform="translate(-1055.497 -486.326)" fill="#e6f0fd" opacity="0.591"/>
      <path id="Path_434" data-name="Path 434" d="M1066.2,489.523c-4.666-1.695-8.448,1.29-8.448,6.667s3.782,11.11,8.448,12.8,8.448-1.29,8.448-6.667S1070.863,491.217,1066.2,489.523Z" transform="translate(-1055.671 -486.536)" fill="#e5f0fd" opacity="0.614"/>
      <path id="Path_435" data-name="Path 435" d="M1066.371,489.822c-4.623-1.679-8.371,1.278-8.371,6.606s3.748,11.009,8.371,12.688,8.371-1.278,8.371-6.606S1070.994,491.5,1066.371,489.822Z" transform="translate(-1055.844 -486.747)" fill="#e4effd" opacity="0.636"/>
      <path id="Path_436" data-name="Path 436" d="M1066.544,490.121c-4.581-1.664-8.294,1.267-8.294,6.546s3.713,10.907,8.294,12.571,8.294-1.267,8.294-6.546S1071.125,491.785,1066.544,490.121Z" transform="translate(-1056.018 -486.957)" fill="#e3effd" opacity="0.659"/>
      <path id="Path_437" data-name="Path 437" d="M1066.718,490.42c-4.539-1.648-8.217,1.255-8.217,6.485s3.679,10.806,8.217,12.454,8.218-1.255,8.218-6.485S1071.256,492.068,1066.718,490.42Z" transform="translate(-1056.192 -487.167)" fill="#e2eefd" opacity="0.682"/>
      <path id="Path_438" data-name="Path 438" d="M1066.891,490.72c-4.5-1.633-8.14,1.243-8.14,6.424s3.645,10.7,8.14,12.338,8.141-1.243,8.141-6.424S1071.387,492.352,1066.891,490.72Z" transform="translate(-1056.365 -487.378)" fill="#e1edfd" opacity="0.705"/>
      <path id="Path_439" data-name="Path 439" d="M1067.065,491.019c-4.453-1.618-8.063,1.231-8.063,6.363s3.61,10.6,8.063,12.221,8.063-1.232,8.063-6.363S1071.519,492.636,1067.065,491.019Z" transform="translate(-1056.539 -487.588)" fill="#e0edfd" opacity="0.727"/>
      <path id="Path_440" data-name="Path 440" d="M1067.239,491.318c-4.411-1.6-7.986,1.219-7.986,6.3s3.576,10.5,7.986,12.1,7.987-1.22,7.987-6.3S1071.65,492.92,1067.239,491.318Z" transform="translate(-1056.713 -487.799)" fill="#dfecfd" opacity="0.75"/>
      <path id="Path_441" data-name="Path 441" d="M1067.413,491.617c-4.368-1.587-7.91,1.208-7.91,6.242s3.541,10.4,7.91,11.988,7.909-1.208,7.909-6.242S1071.781,493.2,1067.413,491.617Z" transform="translate(-1056.886 -488.01)" fill="#deecfd" opacity="0.773"/>
      <path id="Path_442" data-name="Path 442" d="M1067.586,491.916c-4.326-1.571-7.832,1.2-7.832,6.181s3.506,10.3,7.832,11.871,7.833-1.2,7.833-6.181S1071.912,493.487,1067.586,491.916Z" transform="translate(-1057.06 -488.22)" fill="#ddebfd" opacity="0.795"/>
      <path id="Path_443" data-name="Path 443" d="M1067.76,492.216c-4.283-1.556-7.756,1.184-7.756,6.12s3.472,10.2,7.756,11.754,7.756-1.184,7.756-6.12S1072.043,493.771,1067.76,492.216Z" transform="translate(-1057.233 -488.43)" fill="#dcebfd" opacity="0.818"/>
      <path id="Path_444" data-name="Path 444" d="M1067.934,492.514c-4.241-1.54-7.679,1.172-7.679,6.059s3.438,10.1,7.679,11.638,7.678-1.173,7.678-6.06S1072.174,494.055,1067.934,492.514Z" transform="translate(-1057.407 -488.641)" fill="#dbeafc" opacity="0.841"/>
      <path id="Path_445" data-name="Path 445" d="M1068.107,492.814c-4.2-1.525-7.6,1.161-7.6,6s3.4,10,7.6,11.521,7.6-1.161,7.6-6S1072.306,494.338,1068.107,492.814Z" transform="translate(-1057.581 -488.851)" fill="#dae9fc" opacity="0.864"/>
      <path id="Path_446" data-name="Path 446" d="M1068.281,493.113c-4.156-1.51-7.525,1.149-7.525,5.938s3.369,9.895,7.525,11.4,7.525-1.149,7.525-5.938S1072.436,494.622,1068.281,493.113Z" transform="translate(-1057.754 -489.062)" fill="#d9e9fc" opacity="0.886"/>
      <path id="Path_447" data-name="Path 447" d="M1068.454,493.412c-4.113-1.494-7.448,1.138-7.448,5.877s3.334,9.793,7.448,11.288,7.448-1.138,7.448-5.877S1072.568,494.906,1068.454,493.412Z" transform="translate(-1057.928 -489.272)" fill="#d8e8fc" opacity="0.909"/>
      <path id="Path_448" data-name="Path 448" d="M1068.628,493.712c-4.071-1.479-7.371,1.126-7.371,5.816s3.3,9.692,7.371,11.171,7.371-1.126,7.371-5.817S1072.7,495.19,1068.628,493.712Z" transform="translate(-1058.101 -489.483)" fill="#d7e8fc" opacity="0.932"/>
      <path id="Path_449" data-name="Path 449" d="M1068.8,494.011c-4.028-1.463-7.294,1.114-7.294,5.756s3.265,9.591,7.294,11.055,7.294-1.114,7.294-5.756S1072.83,495.474,1068.8,494.011Z" transform="translate(-1058.275 -489.693)" fill="#d6e7fc" opacity="0.955"/>
      <path id="Path_450" data-name="Path 450" d="M1068.976,494.309c-3.986-1.448-7.217,1.1-7.217,5.7s3.231,9.49,7.217,10.937,7.217-1.1,7.217-5.695S1072.961,495.757,1068.976,494.309Z" transform="translate(-1058.449 -489.903)" fill="#d5e7fc" opacity="0.977"/>
      <path id="Path_451" data-name="Path 451" d="M1069.149,494.609c-3.943-1.432-7.14,1.09-7.14,5.634s3.2,9.389,7.14,10.821,7.14-1.09,7.14-5.634S1073.092,496.041,1069.149,494.609Z" transform="translate(-1058.622 -490.114)" fill="#d4e6fc"/>
    </g>
    <g id="Group_68" data-name="Group 68" transform="translate(704.385 397.501)">
      <path id="Path_452" data-name="Path 452" d="M1062.587,497.784c-3.988-1.449-7.221,1.1-7.221,5.7s3.233,9.5,7.221,10.944,7.221-1.1,7.221-5.7S1066.575,499.232,1062.587,497.784Z" transform="translate(-1055.366 -497.378)" fill="url(#linear-gradient-48)"/>
      <path id="Path_453" data-name="Path 453" d="M1073.723,509.658c-1.261-.458-2.284.408-2.284,1.934a4.307,4.307,0,0,0,2.284,3.795c1.261.458,2.284-.609,2.284-2.135A3.993,3.993,0,0,0,1073.723,509.658Z" transform="translate(-1066.502 -505.808)" fill="#fff"/>
      <path id="Path_454" data-name="Path 454" d="M1068.706,530.438c-2.49-.9-4.508-.723-4.508.4s2.019,3.468,4.508,4.372,4.508.03,4.508-1.1S1071.2,531.343,1068.706,530.438Z" transform="translate(-1061.485 -519.905)" fill="#fff"/>
    </g>
    <g id="Group_69" data-name="Group 69" transform="translate(689.565 448.832)" style="mix-blend-mode: multiply;isolation: isolate">
      <path id="Path_455" data-name="Path 455" d="M1017.645,665.432c-5.814-2.112-10.527,1.608-10.527,8.307s4.713,13.843,10.527,15.954,10.527-1.608,10.527-8.307S1023.458,667.544,1017.645,665.432Z" transform="translate(-1007.118 -664.841)" fill="#fff" opacity="0"/>
      <path id="Path_456" data-name="Path 456" d="M1017.819,665.732c-5.771-2.1-10.45,1.6-10.45,8.246s4.678,13.741,10.45,15.838,10.45-1.6,10.45-8.246S1023.59,667.828,1017.819,665.732Z" transform="translate(-1007.292 -665.051)" fill="#fefeff" opacity="0.023"/>
      <path id="Path_457" data-name="Path 457" d="M1017.992,666.031c-5.729-2.081-10.373,1.584-10.373,8.186s4.644,13.64,10.373,15.721,10.373-1.584,10.373-8.186S1023.721,668.112,1017.992,666.031Z" transform="translate(-1007.465 -665.262)" fill="#fdfeff" opacity="0.045"/>
      <path id="Path_458" data-name="Path 458" d="M1018.166,666.33c-5.686-2.065-10.3,1.573-10.3,8.125s4.609,13.539,10.3,15.6,10.3-1.572,10.3-8.125S1023.852,668.4,1018.166,666.33Z" transform="translate(-1007.639 -665.472)" fill="#fcfdff" opacity="0.068"/>
      <path id="Path_459" data-name="Path 459" d="M1018.34,666.629c-5.644-2.05-10.219,1.561-10.219,8.064s4.575,13.438,10.219,15.487,10.219-1.561,10.219-8.064S1023.983,668.679,1018.34,666.629Z" transform="translate(-1007.813 -665.683)" fill="#fbfdff" opacity="0.091"/>
      <path id="Path_460" data-name="Path 460" d="M1018.513,666.928c-5.6-2.034-10.142,1.549-10.142,8s4.541,13.336,10.142,15.371,10.142-1.549,10.142-8S1024.114,668.963,1018.513,666.928Z" transform="translate(-1007.986 -665.893)" fill="#fafcff" opacity="0.114"/>
      <path id="Path_461" data-name="Path 461" d="M1018.687,667.228c-5.559-2.019-10.065,1.537-10.065,7.942s4.506,13.235,10.065,15.254,10.065-1.537,10.065-7.942S1024.245,669.247,1018.687,667.228Z" transform="translate(-1008.16 -666.104)" fill="#f9fcff" opacity="0.136"/>
      <path id="Path_462" data-name="Path 462" d="M1018.86,667.527c-5.516-2-9.988,1.525-9.988,7.882s4.472,13.134,9.988,15.138,9.988-1.525,9.988-7.882S1024.376,669.53,1018.86,667.527Z" transform="translate(-1008.333 -666.314)" fill="#f8fbff" opacity="0.159"/>
      <path id="Path_463" data-name="Path 463" d="M1019.034,667.826c-5.474-1.988-9.911,1.514-9.911,7.821s4.437,13.033,9.911,15.021,9.911-1.514,9.911-7.821S1024.507,669.814,1019.034,667.826Z" transform="translate(-1008.507 -666.524)" fill="#f7fafe" opacity="0.182"/>
      <path id="Path_464" data-name="Path 464" d="M1019.208,668.125c-5.431-1.973-9.834,1.5-9.834,7.76s4.4,12.931,9.834,14.9,9.834-1.5,9.834-7.76S1024.639,670.1,1019.208,668.125Z" transform="translate(-1008.681 -666.735)" fill="#f6fafe" opacity="0.205"/>
      <path id="Path_465" data-name="Path 465" d="M1019.381,668.424c-5.389-1.957-9.757,1.49-9.757,7.7s4.368,12.83,9.757,14.788,9.757-1.49,9.757-7.7S1024.769,670.382,1019.381,668.424Z" transform="translate(-1008.854 -666.945)" fill="#f5f9fe" opacity="0.227"/>
      <path id="Path_466" data-name="Path 466" d="M1019.555,668.724c-5.346-1.942-9.68,1.478-9.68,7.639s4.334,12.729,9.68,14.671,9.68-1.478,9.68-7.639S1024.9,670.666,1019.555,668.724Z" transform="translate(-1009.028 -667.156)" fill="#f4f9fe" opacity="0.25"/>
      <path id="Path_467" data-name="Path 467" d="M1019.729,669.023c-5.3-1.927-9.6,1.466-9.6,7.578s4.3,12.628,9.6,14.554,9.6-1.466,9.6-7.578S1025.032,670.949,1019.729,669.023Z" transform="translate(-1009.202 -667.366)" fill="#f3f8fe" opacity="0.273"/>
      <path id="Path_468" data-name="Path 468" d="M1019.9,669.322c-5.261-1.911-9.526,1.455-9.526,7.518s4.265,12.526,9.526,14.438,9.526-1.455,9.526-7.518S1025.163,671.233,1019.9,669.322Z" transform="translate(-1009.375 -667.577)" fill="#f2f8fe" opacity="0.295"/>
      <path id="Path_469" data-name="Path 469" d="M1020.076,669.621c-5.219-1.9-9.449,1.443-9.449,7.456s4.23,12.425,9.449,14.321,9.449-1.443,9.449-7.457S1025.294,671.517,1020.076,669.621Z" transform="translate(-1009.549 -667.788)" fill="#f1f7fe" opacity="0.318"/>
      <path id="Path_470" data-name="Path 470" d="M1020.249,669.92c-5.176-1.88-9.372,1.431-9.372,7.4s4.2,12.324,9.372,14.2,9.372-1.431,9.372-7.4S1025.425,671.8,1020.249,669.92Z" transform="translate(-1009.722 -667.998)" fill="#f0f6fe" opacity="0.341"/>
      <path id="Path_471" data-name="Path 471" d="M1020.423,670.219c-5.133-1.865-9.295,1.419-9.295,7.335s4.162,12.223,9.295,14.087,9.295-1.419,9.295-7.335S1025.556,672.084,1020.423,670.219Z" transform="translate(-1009.896 -668.208)" fill="#eff6fe" opacity="0.364"/>
      <path id="Path_472" data-name="Path 472" d="M1020.6,670.519c-5.091-1.849-9.218,1.408-9.218,7.274s4.127,12.122,9.218,13.971,9.218-1.408,9.218-7.274S1025.688,672.368,1020.6,670.519Z" transform="translate(-1010.07 -668.419)" fill="#eef5fe" opacity="0.386"/>
      <path id="Path_473" data-name="Path 473" d="M1020.77,670.818c-5.049-1.834-9.141,1.4-9.141,7.214s4.092,12.021,9.141,13.854,9.141-1.4,9.141-7.214S1025.818,672.652,1020.77,670.818Z" transform="translate(-1010.243 -668.629)" fill="#edf5fe" opacity="0.409"/>
      <path id="Path_474" data-name="Path 474" d="M1020.944,671.117c-5.006-1.818-9.064,1.384-9.064,7.153s4.058,11.919,9.064,13.738,9.064-1.384,9.064-7.153S1025.95,672.936,1020.944,671.117Z" transform="translate(-1010.417 -668.84)" fill="#ecf4fe" opacity="0.432"/>
      <path id="Path_475" data-name="Path 475" d="M1021.117,671.416c-4.964-1.8-8.987,1.372-8.987,7.092s4.024,11.818,8.987,13.621,8.987-1.372,8.987-7.092S1026.081,673.219,1021.117,671.416Z" transform="translate(-1010.591 -669.05)" fill="#ebf4fe" opacity="0.455"/>
      <path id="Path_476" data-name="Path 476" d="M1021.291,671.715c-4.921-1.787-8.91,1.361-8.91,7.032s3.989,11.717,8.91,13.5,8.91-1.361,8.91-7.031S1026.212,673.5,1021.291,671.715Z" transform="translate(-1010.764 -669.26)" fill="#eaf3fe" opacity="0.477"/>
      <path id="Path_477" data-name="Path 477" d="M1021.465,672.015c-4.879-1.772-8.833,1.349-8.833,6.971s3.955,11.615,8.833,13.388,8.833-1.349,8.833-6.971S1026.343,673.787,1021.465,672.015Z" transform="translate(-1010.938 -669.471)" fill="#eaf3fe" opacity="0.5"/>
      <path id="Path_478" data-name="Path 478" d="M1021.638,672.314c-4.836-1.756-8.756,1.337-8.756,6.91s3.92,11.514,8.756,13.271,8.756-1.337,8.756-6.91S1026.474,674.07,1021.638,672.314Z" transform="translate(-1011.112 -669.682)" fill="#e9f2fd" opacity="0.523"/>
      <path id="Path_479" data-name="Path 479" d="M1021.812,672.613c-4.793-1.741-8.679,1.325-8.679,6.849s3.886,11.413,8.679,13.154,8.679-1.325,8.679-6.849S1026.606,674.354,1021.812,672.613Z" transform="translate(-1011.285 -669.892)" fill="#e8f1fd" opacity="0.545"/>
      <path id="Path_480" data-name="Path 480" d="M1021.985,672.912c-4.751-1.726-8.6,1.314-8.6,6.788s3.851,11.312,8.6,13.038,8.6-1.314,8.6-6.789S1026.736,674.638,1021.985,672.912Z" transform="translate(-1011.459 -670.103)" fill="#e7f1fd" opacity="0.568"/>
      <path id="Path_481" data-name="Path 481" d="M1022.159,673.211c-4.708-1.71-8.525,1.3-8.525,6.728s3.817,11.211,8.525,12.921,8.525-1.3,8.525-6.728S1026.868,674.921,1022.159,673.211Z" transform="translate(-1011.633 -670.313)" fill="#e6f0fd" opacity="0.591"/>
      <path id="Path_482" data-name="Path 482" d="M1022.333,673.511c-4.666-1.695-8.448,1.29-8.448,6.667s3.782,11.109,8.448,12.8,8.448-1.29,8.448-6.667S1027,675.205,1022.333,673.511Z" transform="translate(-1011.807 -670.524)" fill="#e5f0fd" opacity="0.614"/>
      <path id="Path_483" data-name="Path 483" d="M1022.506,673.81c-4.623-1.679-8.371,1.279-8.371,6.606s3.748,11.008,8.371,12.688,8.371-1.279,8.371-6.606S1027.13,675.489,1022.506,673.81Z" transform="translate(-1011.98 -670.734)" fill="#e4effd" opacity="0.636"/>
      <path id="Path_484" data-name="Path 484" d="M1022.68,674.109c-4.581-1.664-8.294,1.267-8.294,6.545s3.713,10.907,8.294,12.571,8.294-1.267,8.294-6.545S1027.261,675.773,1022.68,674.109Z" transform="translate(-1012.154 -670.945)" fill="#e3effd" opacity="0.659"/>
      <path id="Path_485" data-name="Path 485" d="M1022.854,674.408c-4.538-1.648-8.218,1.255-8.218,6.485s3.679,10.806,8.218,12.454,8.217-1.255,8.217-6.485S1027.392,676.056,1022.854,674.408Z" transform="translate(-1012.327 -671.155)" fill="#e2eefd" opacity="0.682"/>
      <path id="Path_486" data-name="Path 486" d="M1023.027,674.707c-4.5-1.633-8.14,1.243-8.14,6.424s3.645,10.7,8.14,12.338,8.14-1.243,8.14-6.424S1027.523,676.34,1023.027,674.707Z" transform="translate(-1012.501 -671.365)" fill="#e1edfd" opacity="0.705"/>
      <path id="Path_487" data-name="Path 487" d="M1023.2,675.007c-4.453-1.618-8.063,1.231-8.063,6.363s3.61,10.6,8.063,12.221,8.063-1.231,8.063-6.363S1027.654,676.624,1023.2,675.007Z" transform="translate(-1012.675 -671.576)" fill="#e0edfd" opacity="0.727"/>
      <path id="Path_488" data-name="Path 488" d="M1023.375,675.305c-4.411-1.6-7.987,1.22-7.987,6.3s3.576,10.5,7.987,12.1,7.987-1.22,7.987-6.3S1027.785,676.907,1023.375,675.305Z" transform="translate(-1012.848 -671.786)" fill="#dfecfd" opacity="0.75"/>
      <path id="Path_489" data-name="Path 489" d="M1023.548,675.6c-4.368-1.587-7.909,1.208-7.909,6.242s3.541,10.4,7.909,11.988,7.909-1.208,7.909-6.242S1027.917,677.191,1023.548,675.6Z" transform="translate(-1013.022 -671.997)" fill="#deecfd" opacity="0.773"/>
      <path id="Path_490" data-name="Path 490" d="M1023.722,675.9c-4.326-1.571-7.832,1.2-7.832,6.181s3.506,10.3,7.832,11.871,7.832-1.2,7.832-6.181S1028.048,677.475,1023.722,675.9Z" transform="translate(-1013.196 -672.207)" fill="#ddebfd" opacity="0.795"/>
      <path id="Path_491" data-name="Path 491" d="M1023.9,676.2c-4.283-1.556-7.756,1.184-7.756,6.12s3.472,10.2,7.756,11.754,7.756-1.184,7.756-6.12S1028.179,677.759,1023.9,676.2Z" transform="translate(-1013.369 -672.418)" fill="#dcebfd" opacity="0.818"/>
      <path id="Path_492" data-name="Path 492" d="M1024.07,676.5c-4.241-1.541-7.679,1.172-7.679,6.059s3.438,10.1,7.679,11.638,7.678-1.172,7.678-6.059S1028.31,678.043,1024.07,676.5Z" transform="translate(-1013.543 -672.628)" fill="#dbeafc" opacity="0.841"/>
      <path id="Path_493" data-name="Path 493" d="M1024.243,676.8c-4.2-1.525-7.6,1.161-7.6,6s3.4,10,7.6,11.521,7.6-1.161,7.6-6S1028.441,678.326,1024.243,676.8Z" transform="translate(-1013.716 -672.839)" fill="#dae9fc" opacity="0.864"/>
      <path id="Path_494" data-name="Path 494" d="M1024.417,677.1c-4.156-1.509-7.525,1.149-7.525,5.938s3.369,9.895,7.525,11.4,7.525-1.149,7.525-5.938S1028.572,678.61,1024.417,677.1Z" transform="translate(-1013.89 -673.049)" fill="#d9e9fc" opacity="0.886"/>
      <path id="Path_495" data-name="Path 495" d="M1024.591,677.4c-4.113-1.494-7.448,1.137-7.448,5.877s3.334,9.793,7.448,11.287,7.447-1.137,7.447-5.877S1028.7,678.894,1024.591,677.4Z" transform="translate(-1014.064 -673.26)" fill="#d8e8fc" opacity="0.909"/>
      <path id="Path_496" data-name="Path 496" d="M1024.764,677.7c-4.071-1.478-7.371,1.126-7.371,5.817s3.3,9.692,7.371,11.171,7.371-1.126,7.371-5.817S1028.834,679.178,1024.764,677.7Z" transform="translate(-1014.237 -673.47)" fill="#d7e8fc" opacity="0.932"/>
      <path id="Path_497" data-name="Path 497" d="M1024.938,678c-4.028-1.463-7.294,1.114-7.294,5.756s3.265,9.591,7.294,11.054,7.294-1.114,7.294-5.756S1028.966,679.461,1024.938,678Z" transform="translate(-1014.411 -673.681)" fill="#d6e7fc" opacity="0.955"/>
      <path id="Path_498" data-name="Path 498" d="M1025.111,678.3c-3.986-1.448-7.217,1.1-7.217,5.695s3.231,9.49,7.217,10.938,7.217-1.1,7.217-5.695S1029.1,679.745,1025.111,678.3Z" transform="translate(-1014.584 -673.891)" fill="#d5e7fc" opacity="0.977"/>
      <path id="Path_499" data-name="Path 499" d="M1025.285,678.6c-3.943-1.432-7.14,1.09-7.14,5.634s3.2,9.389,7.14,10.821,7.14-1.09,7.14-5.635S1029.228,680.029,1025.285,678.6Z" transform="translate(-1014.758 -674.102)" fill="#d4e6fc"/>
    </g>
    <g id="Group_70" data-name="Group 70" transform="translate(690.912 453.898)">
      <path id="Path_500" data-name="Path 500" d="M1018.723,681.772c-3.988-1.449-7.221,1.1-7.221,5.7s3.233,9.5,7.221,10.944,7.221-1.1,7.221-5.7S1022.711,683.22,1018.723,681.772Z" transform="translate(-1011.502 -681.366)" fill="#ff6984"/>
      <path id="Path_501" data-name="Path 501" d="M1029.859,693.645c-1.262-.458-2.285.408-2.285,1.934a4.307,4.307,0,0,0,2.285,3.8c1.261.458,2.284-.609,2.284-2.136A3.993,3.993,0,0,0,1029.859,693.645Z" transform="translate(-1022.637 -689.796)" fill="#fff"/>
      <path id="Path_502" data-name="Path 502" d="M1024.842,714.426c-2.49-.9-4.508-.723-4.508.4s2.018,3.468,4.508,4.373,4.508.03,4.508-1.1S1027.332,715.33,1024.842,714.426Z" transform="translate(-1017.621 -703.893)" fill="#fff"/>
    </g>
    <path id="Path_503" data-name="Path 503" d="M1085.254,700.995,1135.1,719.1V716L1085.254,697.9Z" transform="translate(-371.689 -238.931)" fill="#72abfe" opacity="0.22" style="mix-blend-mode: multiply;isolation: isolate"/>
    <path id="Path_504" data-name="Path 504" d="M1085.254,722.651l49.846,18.105v-3.1l-49.846-18.105Z" transform="translate(-371.689 -253.949)" fill="#72abfe" opacity="0.22" style="mix-blend-mode: multiply;isolation: isolate"/>
    <path id="Path_505" data-name="Path 505" d="M1085.254,744.308l21.02,7.629v-3.1l-21.02-7.629Z" transform="translate(-371.689 -268.968)" fill="#72abfe" opacity="0.22" style="mix-blend-mode: multiply;isolation: isolate"/>
    <path id="Path_506" data-name="Path 506" d="M1165.086,771.618a.774.774,0,0,0-1.07.588,1.894,1.894,0,0,0-1.069-1.365c-.617-.224-1.117.2-1.117.941a1.881,1.881,0,0,0,.088.556,26.059,26.059,0,0,0,2.1,3.025,9.445,9.445,0,0,0,2.088-1.474,1.3,1.3,0,0,0,.1-.519A1.948,1.948,0,0,0,1165.086,771.618Z" transform="translate(-424.745 -289.475)" fill="#ff6984"/>
    <path id="Path_507" data-name="Path 507" d="M1184.548,779.6a.775.775,0,0,0-1.069.588,1.9,1.9,0,0,0-1.069-1.365c-.617-.224-1.118.2-1.118.941a1.883,1.883,0,0,0,.088.556,26.076,26.076,0,0,0,2.1,3.025,9.449,9.449,0,0,0,2.088-1.474,1.3,1.3,0,0,0,.1-.519A1.948,1.948,0,0,0,1184.548,779.6Z" transform="translate(-438.229 -295.01)" fill="#ff6984"/>
    <path id="Path_508" data-name="Path 508" d="M1204.012,787.581a.774.774,0,0,0-1.069.588,1.9,1.9,0,0,0-1.069-1.365c-.617-.224-1.117.2-1.117.941a1.874,1.874,0,0,0,.088.556,26.089,26.089,0,0,0,2.1,3.025,9.434,9.434,0,0,0,2.088-1.474,1.294,1.294,0,0,0,.1-.518A1.949,1.949,0,0,0,1204.012,787.581Z" transform="translate(-451.715 -300.545)" fill="#ff6984"/>
  </g>
  <g id="Group_83" data-name="Group 83" transform="translate(-38 -10)">
    <g id="Group_71" data-name="Group 71" transform="translate(-1643.717 -2007)">
      <g id="Group_81" data-name="Group 81" transform="translate(1809.71 2050.025)">
        <g id="Group_48-2" data-name="Group 48" transform="translate(8.688 10.059)">
          <g id="Group_43-2" data-name="Group 43" transform="translate(5.359 1.195)">
            <path id="Path_7" data-name="Path 7" d="M2120.142,2311.766l1.384.764a.819.819,0,0,0,1.04-.212q.186-.237.359-.485a2.3,2.3,0,0,0,.409-.815.453.453,0,0,0-.139-.458,4.775,4.775,0,0,0-1.394-.887.136.136,0,0,0-.2.057c-.365.517-.735,1.03-1.1,1.544C2120.382,2311.439,2120.261,2311.6,2120.142,2311.766Z" transform="translate(-2120.142 -2309.652)" fill="#fff"/>
          </g>
          <g id="Group_44-2" data-name="Group 44" transform="translate(3.277)">
            <path id="Path_8" data-name="Path 8" d="M2083.252,2290.642a.35.35,0,0,0,.433-.114l.081-.112c.369-.514.74-1.027,1.1-1.544l.006-.007c.019-.227-.113-.368-.375-.558-.319-.231-.68-.4-1.022-.605-.083-.049-.132-.032-.186.049-.243.366-.495.726-.738,1.092-.232.35-.457.7-.7,1.081.489.253.938.494,1.4.716Z" transform="translate(-2081.854 -2287.676)" fill="#fff"/>
          </g>
          <g id="Group_45-2" data-name="Group 45" transform="translate(6.192 3.183)">
            <path id="Path_9" data-name="Path 9" d="M2139.394,2347.421a.433.433,0,0,0-.133-.438,3.964,3.964,0,0,0-.942-.658l-.171-.08a.13.13,0,0,0-.189.055c-.349.495-.7.986-1.057,1.477-.284.4-.953,1.209-1.224,1.613a3.169,3.169,0,0,0-.166.28.309.309,0,0,0,.136.42c.178.089.354.184.526.285a1.109,1.109,0,0,0,1.154-.234l0,0A15.986,15.986,0,0,0,2139,2348.2,2.2,2.2,0,0,0,2139.394,2347.421Z" transform="translate(-2135.478 -2346.224)" fill="#fff"/>
          </g>
          <g id="Group_46-2" data-name="Group 46" transform="translate(8.236 4.993)">
            <path id="Path_10" data-name="Path 10" d="M2176.428,2380.15a3.293,3.293,0,0,0-.961-.611.094.094,0,0,0-.136.04c-.251.356-1.24,1.445-1.494,1.8-.2.285-.417.564-.612.855a2.187,2.187,0,0,0-.12.2.223.223,0,0,0,.1.3c.138.069.275.143.409.223a.8.8,0,0,0,.96-.107l0,0a20.725,20.725,0,0,0,1.666-1.822,1.585,1.585,0,0,0,.282-.562A.312.312,0,0,0,2176.428,2380.15Z" transform="translate(-2173.079 -2379.524)" fill="#fff"/>
          </g>
          <g id="Group_47-2" data-name="Group 47" transform="translate(0 2.469)">
            <path id="Path_11" data-name="Path 11" d="M2030.369,2339.782c-1.278-1.3-5.261-3.024-5.261-3.024h0a2.383,2.383,0,0,0,.293-.709c.174.1.379.219.62.347,1.552.824,2.8-1.019,2.8-1.019l-2.783-1.563h0a12.321,12.321,0,0,0-1.451-.682.585.585,0,0,0-.691.168,3.68,3.68,0,0,0-.28.374c-.424.661-.853,1.317-1.26,1.989-.272.449-.511.918-.755,1.383a.274.274,0,0,0,.006.224q.059.106.121.21h-.01l2.388,4.441a2.451,2.451,0,0,1,.271,1.486l-.525,8.5h7.225l.056-8.04a2.452,2.452,0,0,1,.663-1.638h0a2.451,2.451,0,0,0,.664-1.684l-.006-1.886C2031.739,2339.637,2030.939,2340.363,2030.369,2339.782Z" transform="translate(-2021.576 -2333.085)" fill="#fff"/>
          </g>
        </g>
        <g id="Group_54-2" data-name="Group 54" transform="translate(5.139 0)">
          <g id="Group_49-2" data-name="Group 49" transform="translate(8.646 6.83)">
            <circle id="Ellipse_27" data-name="Ellipse 27" cx="0.78" cy="0.78" r="0.78" fill="#fff"/>
          </g>
          <g id="Group_50-2" data-name="Group 50" transform="translate(0 4.317)">
            <circle id="Ellipse_28" data-name="Ellipse 28" cx="0.511" cy="0.511" r="0.511" fill="#fff"/>
          </g>
          <g id="Group_51-2" data-name="Group 51" transform="translate(5.131 0.723)">
            <circle id="Ellipse_29" data-name="Ellipse 29" cx="1.134" cy="1.134" r="1.134" fill="#fff"/>
          </g>
          <g id="Group_52-2" data-name="Group 52" transform="translate(8.004)">
            <ellipse id="Ellipse_30" data-name="Ellipse 30" cx="1.391" cy="2.995" rx="1.391" ry="2.995" fill="#fff"/>
          </g>
          <g id="Group_53-2" data-name="Group 53" transform="translate(0.287 1.001)">
            <ellipse id="Ellipse_31" data-name="Ellipse 31" cx="1.977" cy="4.256" rx="1.977" ry="4.256" transform="translate(0 2.386) rotate(-37.129)" fill="#fff"/>
          </g>
        </g>
        <g id="Group_60-2" data-name="Group 60" transform="translate(0 5.937)">
          <g id="Group_55-2" data-name="Group 55" transform="translate(7.938 4.202)">
            <circle id="Ellipse_32" data-name="Ellipse 32" cx="0.78" cy="0.78" r="0.78" fill="#fff"/>
          </g>
          <g id="Group_56-2" data-name="Group 56" transform="translate(1.339 10.8)">
            <path id="Path_12" data-name="Path 12" d="M1887.181,2410.577a.511.511,0,1,1-.7.187A.511.511,0,0,1,1887.181,2410.577Z" transform="translate(-1886.414 -2410.509)" fill="#fff"/>
          </g>
          <g id="Group_57-2" data-name="Group 57" transform="translate(0.868 3.557)">
            <circle id="Ellipse_33" data-name="Ellipse 33" cx="1.134" cy="1.134" r="1.134" transform="translate(0 0.329) rotate(-8.344)" fill="#fff"/>
          </g>
          <g id="Group_58-2" data-name="Group 58" transform="translate(1.416 0)">
            <ellipse id="Ellipse_34" data-name="Ellipse 34" cx="1.391" cy="2.995" rx="1.391" ry="2.995" transform="translate(0 2.409) rotate(-60)" fill="#fff"/>
          </g>
          <g id="Group_59-2" data-name="Group 59" transform="translate(0 5.807)">
            <ellipse id="Ellipse_35" data-name="Ellipse 35" cx="4.256" cy="1.977" rx="4.256" ry="1.977" transform="translate(0 1.056) rotate(-7.129)" fill="#fff"/>
          </g>
        </g>
        <g id="Group_66-2" data-name="Group 66" transform="translate(1.389 17.271)">
          <g id="Group_61-2" data-name="Group 61" transform="translate(6.416 1.928)">
            <circle id="Ellipse_36" data-name="Ellipse 36" cx="0.511" cy="0.511" r="0.511" transform="matrix(0.933, -0.36, 0.36, 0.933, 0, 0.368)" fill="#fff"/>
          </g>
          <g id="Group_62-2" data-name="Group 62" transform="translate(19.049 3.608)">
            <circle id="Ellipse_37" data-name="Ellipse 37" cx="0.511" cy="0.511" r="0.511" transform="translate(0 0.466) rotate(-27.097)" fill="#fff"/>
          </g>
          <g id="Group_63-2" data-name="Group 63" transform="translate(2.48 4.593)">
            <circle id="Ellipse_38" data-name="Ellipse 38" cx="1.134" cy="1.134" r="1.134" transform="matrix(0.259, -0.966, 0.966, 0.259, 0, 2.19)" fill="#fff"/>
          </g>
          <g id="Group_64-2" data-name="Group 64" transform="translate(0 0)">
            <ellipse id="Ellipse_39" data-name="Ellipse 39" cx="2.995" cy="1.391" rx="2.995" ry="1.391" transform="matrix(0.866, -0.5, 0.5, 0.866, 0, 2.995)" fill="#fff"/>
          </g>
          <g id="Group_65-2" data-name="Group 65" transform="translate(4.714 3.144)">
            <ellipse id="Ellipse_40" data-name="Ellipse 40" cx="3.161" cy="1.468" rx="3.161" ry="1.468" transform="translate(0 5.825) rotate(-67.13)" fill="#fff"/>
          </g>
        </g>
        <g id="Group_69-2" data-name="Group 69" transform="translate(18.737 22.57)">
          <g id="Group_67-2" data-name="Group 67" transform="translate(4.115 0.747)">
            <circle id="Ellipse_41" data-name="Ellipse 41" cx="0.511" cy="0.511" r="0.511" fill="#fff"/>
          </g>
          <g id="Group_68-2" data-name="Group 68" transform="translate(0 0)">
            <ellipse id="Ellipse_42" data-name="Ellipse 42" cx="0.964" cy="2.076" rx="0.964" ry="2.076" transform="translate(0 1.164) rotate(-37.129)" fill="#fff"/>
          </g>
        </g>
        <g id="Group_74" data-name="Group 74" transform="translate(20.077 10.707)">
          <g id="Group_70-2" data-name="Group 70" transform="translate(6.384 0)">
            <circle id="Ellipse_43" data-name="Ellipse 43" cx="0.511" cy="0.511" r="0.511" transform="matrix(0.511, -0.859, 0.859, 0.511, 0, 0.879)" fill="#fff"/>
          </g>
          <g id="Group_71-2" data-name="Group 71" transform="translate(5.18 5.567)">
            <circle id="Ellipse_44" data-name="Ellipse 44" cx="1.134" cy="1.134" r="1.134" transform="matrix(0.681, -0.732, 0.732, 0.681, 0, 1.66)" fill="#fff"/>
          </g>
          <g id="Group_72" data-name="Group 72" transform="translate(0.942 6.609)">
            <ellipse id="Ellipse_45" data-name="Ellipse 45" cx="1.391" cy="2.995" rx="1.391" ry="2.995" transform="matrix(0.5, -0.866, 0.866, 0.5, 0, 2.409)" fill="#fff"/>
          </g>
          <g id="Group_73" data-name="Group 73" transform="translate(0 1.227)">
            <ellipse id="Ellipse_46" data-name="Ellipse 46" cx="4.256" cy="1.977" rx="4.256" ry="1.977" transform="translate(0 1.056) rotate(-7.129)" fill="#fff"/>
          </g>
        </g>
        <g id="Group_80" data-name="Group 80" transform="translate(16.134 0.993)">
          <g id="Group_75" data-name="Group 75" transform="translate(3.44 9.246)">
            <path id="Path_13" data-name="Path 13" d="M2222.991,2292.45a.78.78,0,1,1,.285-1.065A.78.78,0,0,1,2222.991,2292.45Z" transform="translate(-2221.821 -2290.994)" fill="#fff"/>
          </g>
          <g id="Group_76" data-name="Group 76" transform="translate(1.461 0.204)">
            <circle id="Ellipse_47" data-name="Ellipse 47" cx="0.511" cy="0.511" r="0.511" transform="translate(0 0.577) rotate(-34.345)" fill="#fff"/>
          </g>
          <g id="Group_77" data-name="Group 77" transform="translate(6.083 2.873)">
            <circle id="Ellipse_48" data-name="Ellipse 48" cx="1.134" cy="1.134" r="1.134" transform="translate(0 1.091) rotate(-28.757)" fill="#fff"/>
          </g>
          <g id="Group_78" data-name="Group 78" transform="translate(4.913 4.989)">
            <ellipse id="Ellipse_49" data-name="Ellipse 49" cx="2.995" cy="1.391" rx="2.995" ry="1.391" transform="translate(0 2.995) rotate(-30)" fill="#fff"/>
          </g>
          <g id="Group_79" data-name="Group 79" transform="translate(0 0)">
            <ellipse id="Ellipse_50" data-name="Ellipse 50" cx="4.256" cy="1.977" rx="4.256" ry="1.977" transform="translate(0 7.842) rotate(-67.129)" fill="#fff"/>
          </g>
        </g>
      </g>
      <g id="Group_82" data-name="Group 82" transform="translate(1806.717 2047)">
        <path id="Path_14" data-name="Path 14" d="M1824.217,2082a17.448,17.448,0,1,1,6.812-1.375A17.389,17.389,0,0,1,1824.217,2082Zm0-33.573a16.02,16.02,0,1,0,6.256,1.263A15.972,15.972,0,0,0,1824.217,2048.427Z" transform="translate(-1806.717 -2047)" fill="#fff"/>
      </g>
    </g>
    <text id="Unira_Onehand" data-name="Unira
Onehand" transform="translate(208 55)" fill="#fff" font-size="13" font-family="SegoeUI-Bold, Segoe UI" font-weight="700"><tspan x="0" y="0">Unira</tspan><tspan x="0" y="17">Onehand</tspan></text>
  </g>
  <g id="Repeat_Grid_1" data-name="Repeat Grid 1" transform="translate(320.003 205.003)" clip-path="url(#clip-path-11)">
    <g transform="translate(-340.003 -205.003)">
      <path id="Union_1" data-name="Union 1" d="M45,46.5A1.5,1.5,0,1,1,46.5,48,1.5,1.5,0,0,1,45,46.5Zm-9,0A1.5,1.5,0,1,1,37.5,48,1.5,1.5,0,0,1,36,46.5Zm-9,0A1.5,1.5,0,1,1,28.5,48,1.5,1.5,0,0,1,27,46.5Zm-9,0A1.5,1.5,0,1,1,19.5,48,1.5,1.5,0,0,1,18,46.5Zm-9,0A1.5,1.5,0,1,1,10.5,48,1.5,1.5,0,0,1,9,46.5Zm-9,0A1.5,1.5,0,1,1,1.5,48,1.5,1.5,0,0,1,0,46.5Zm45-9A1.5,1.5,0,1,1,46.5,39,1.5,1.5,0,0,1,45,37.5Zm-9,0A1.5,1.5,0,1,1,37.5,39,1.5,1.5,0,0,1,36,37.5Zm-9,0A1.5,1.5,0,1,1,28.5,39,1.5,1.5,0,0,1,27,37.5Zm-9,0A1.5,1.5,0,1,1,19.5,39,1.5,1.5,0,0,1,18,37.5Zm-9,0A1.5,1.5,0,1,1,10.5,39,1.5,1.5,0,0,1,9,37.5Zm-9,0A1.5,1.5,0,1,1,1.5,39,1.5,1.5,0,0,1,0,37.5Zm45-9A1.5,1.5,0,1,1,46.5,30,1.5,1.5,0,0,1,45,28.5Zm-9,0A1.5,1.5,0,1,1,37.5,30,1.5,1.5,0,0,1,36,28.5Zm-9,0A1.5,1.5,0,1,1,28.5,30,1.5,1.5,0,0,1,27,28.5Zm-9,0A1.5,1.5,0,1,1,19.5,30,1.5,1.5,0,0,1,18,28.5Zm-9,0A1.5,1.5,0,1,1,10.5,30,1.5,1.5,0,0,1,9,28.5Zm-9,0A1.5,1.5,0,1,1,1.5,30,1.5,1.5,0,0,1,0,28.5Zm45-9A1.5,1.5,0,1,1,46.5,21,1.5,1.5,0,0,1,45,19.5Zm-9,0A1.5,1.5,0,1,1,37.5,21,1.5,1.5,0,0,1,36,19.5Zm-9,0A1.5,1.5,0,1,1,28.5,21,1.5,1.5,0,0,1,27,19.5Zm-9,0A1.5,1.5,0,1,1,19.5,21,1.5,1.5,0,0,1,18,19.5Zm-9,0A1.5,1.5,0,1,1,10.5,21,1.5,1.5,0,0,1,9,19.5Zm-9,0A1.5,1.5,0,1,1,1.5,21,1.5,1.5,0,0,1,0,19.5Zm45-9A1.5,1.5,0,1,1,46.5,12,1.5,1.5,0,0,1,45,10.5Zm-9,0A1.5,1.5,0,1,1,37.5,12,1.5,1.5,0,0,1,36,10.5Zm-9,0A1.5,1.5,0,1,1,28.5,12,1.5,1.5,0,0,1,27,10.5Zm-9,0A1.5,1.5,0,1,1,19.5,12,1.5,1.5,0,0,1,18,10.5Zm-9,0A1.5,1.5,0,1,1,10.5,12,1.5,1.5,0,0,1,9,10.5Zm-9,0A1.5,1.5,0,1,1,1.5,12,1.5,1.5,0,0,1,0,10.5Zm45-9A1.5,1.5,0,1,1,46.5,3,1.5,1.5,0,0,1,45,1.5Zm-9,0A1.5,1.5,0,1,1,37.5,3,1.5,1.5,0,0,1,36,1.5Zm-9,0A1.5,1.5,0,1,1,28.5,3,1.5,1.5,0,0,1,27,1.5Zm-9,0A1.5,1.5,0,1,1,19.5,3,1.5,1.5,0,0,1,18,1.5Zm-9,0A1.5,1.5,0,1,1,10.5,3,1.5,1.5,0,0,1,9,1.5Zm-9,0A1.5,1.5,0,1,1,1.5,3,1.5,1.5,0,0,1,0,1.5Z" transform="translate(340.003 205.003)" fill="#2d6ec4"/>
    </g>
  </g>
  <g id="Pattern" transform="translate(138 -392.893)">
    <rect id="Rectangle_7" data-name="Rectangle 7" width="38" height="38" rx="4" transform="translate(109 468.893)" fill="#284c87"/>
    <rect id="Rectangle_8" data-name="Rectangle 8" width="20" height="20" rx="2" transform="translate(166 415.893)" fill="#2c548b"/>
    <rect id="Rectangle_9" data-name="Rectangle 9" width="18" height="18" rx="2" transform="translate(30 503.893)" fill="#264884"/>
    <rect id="Rectangle_10" data-name="Rectangle 10" width="25" height="25" rx="4" transform="translate(176 541.893)" fill="#2b538b"/>
  </g>
</svg>
