<svg id="desk-lamp" xmlns="http://www.w3.org/2000/svg" width="35" height="32.462" viewBox="0 0 35 32.462">
  <circle id="Ellipse_54" data-name="Ellipse 54" cx="2.459" cy="2.459" r="2.459" transform="translate(21.315 4.842)" fill="#fbd307"/>
  <path id="Path_1247" data-name="Path 1247" d="M338.565,89.394a2.459,2.459,0,0,0-.677.1,2.459,2.459,0,0,1,0,4.728,2.459,2.459,0,1,0,.677-4.823Z" transform="translate(-314.79 -84.552)" fill="#f9c301"/>
  <path id="Path_1248" data-name="Path 1248" d="M13.819,296a9.44,9.44,0,0,1-.275,10.465v.042H45.122A1.981,1.981,0,0,0,47.1,304.53v-6.545A1.981,1.981,0,0,0,45.122,296Z" transform="translate(-12.618 -277.038)" fill="#fcddaf"/>
  <path id="Path_1249" data-name="Path 1249" d="M45.121,296H43.678v5.1a1.981,1.981,0,0,1-1.981,1.981H15.041a9.392,9.392,0,0,1-1.5,3.382v.042H45.121A1.981,1.981,0,0,0,47.1,304.53v-6.545A1.981,1.981,0,0,0,45.121,296Z" transform="translate(-12.617 -277.038)" fill="#f9c36e"/>
  <path id="Path_1250" data-name="Path 1250" d="M93.129,333.631H84.781a.514.514,0,1,1,0-1.029h8.348a.514.514,0,1,1,0,1.029Z" transform="translate(-78.507 -311.134)" fill="#f8c36d"/>
  <path id="Path_1251" data-name="Path 1251" d="M168.338,34.718h-2.057V23.573a5.013,5.013,0,0,1,8.557-3.545l.994.994-1.455,1.455-.994-.994a2.955,2.955,0,0,0-5.045,2.09Z" transform="translate(-154.914 -18.563)" fill="#9fabe4"/>
  <path id="Path_1252" data-name="Path 1252" d="M182.077,55.06V65.549h.978V54.4a2.953,2.953,0,0,1,1.87-2.748A3.459,3.459,0,0,0,182.077,55.06Z" transform="translate(-169.63 -49.394)" fill="#6b7ed6"/>
  <path id="Path_1253" data-name="Path 1253" d="M100.967,236.607h-5.58a3.311,3.311,0,0,0-3.311,3.311v.013a.684.684,0,0,0,.684.684h10.835a.684.684,0,0,0,.684-.684v-.013A3.311,3.311,0,0,0,100.967,236.607Z" transform="translate(-85.782 -221.702)" fill="#bcc3eb"/>
  <path id="Path_1254" data-name="Path 1254" d="M182.665,236.607h-2.9a3.311,3.311,0,0,1,3.311,3.311v.013a.684.684,0,0,1-.684.684h2.9a.684.684,0,0,0,.684-.684v-.013A3.311,3.311,0,0,0,182.665,236.607Z" transform="translate(-167.479 -221.702)" fill="#9fabe4"/>
  <path id="Path_1255" data-name="Path 1255" d="M32.5,300.016H.514a.514.514,0,1,1,0-1.029H32.5a1.469,1.469,0,0,0,1.467-1.467v-6.545a1.469,1.469,0,0,0-1.467-1.467H.516a.514.514,0,1,1,0-1.029H32.5a2.5,2.5,0,0,1,2.5,2.5v6.545A2.5,2.5,0,0,1,32.5,300.016Z" transform="translate(0 -270.029)" fill="#4f66ce"/>
  <path id="Path_1256" data-name="Path 1256" d="M342.081,382.764l-1.531-1.092-1.574,1.1a.262.262,0,0,1-.411-.215V374.7h3.931v7.848a.262.262,0,0,1-.414.213Z" transform="translate(-315.42 -350.357)" fill="#fc6b55"/>
  <path id="Path_1257" data-name="Path 1257" d="M367.316,374.7v6.984l.02-.014,1.531,1.092a.262.262,0,0,0,.414-.213V374.7Z" transform="translate(-342.207 -350.357)" fill="#fc534e"/>
  <path id="Path_1258" data-name="Path 1258" d="M163.327,367.225h-17.81a.514.514,0,1,1,0-1.029h17.81a.514.514,0,1,1,0,1.029Z" transform="translate(-135.091 -342.432)" fill="#f8c36d"/>
  <path id="Path_1259" data-name="Path 1259" d="M253.385,22.748a.856.856,0,0,0-.166-1.34c-2.939-1.757-7.5-2.387-9.839-.051s-1.706,6.9.051,9.839a.856.856,0,0,0,1.34.166Z" transform="translate(-225.327 -19.749)" fill="#bcc3eb"/>
  <path id="Path_1260" data-name="Path 1260" d="M265.672,21.413c-2.407-1.439-5.9-2.121-8.373-1.039a11.231,11.231,0,0,1,1.635.319,2.6,2.6,0,0,1,1.165,4.338L255.227,29.9a10.743,10.743,0,0,0,.654,1.293.857.857,0,0,0,1.343.17l8.613-8.613A.856.856,0,0,0,265.672,21.413Z" transform="translate(-237.78 -19.755)" fill="#9fabe4"/>
  <g id="Group_104" data-name="Group 104" transform="translate(23.165 6.71)">
    <path id="Path_1261" data-name="Path 1261" d="M388.166,168.565a.513.513,0,0,1-.364-.151l-.83-.83a.514.514,0,0,1,.727-.727l.83.83a.514.514,0,0,1-.364.878Z" transform="translate(-383.543 -163.289)" fill="#fce25b"/>
    <path id="Path_1262" data-name="Path 1262" d="M407.053,117.744h-1a.514.514,0,1,1,0-1.029h1a.514.514,0,1,1,0,1.029Z" transform="translate(-400.979 -116.715)" fill="#fce25b"/>
    <path id="Path_1263" data-name="Path 1263" d="M339.379,184.18a.514.514,0,0,1-.514-.514v-1.044a.514.514,0,1,1,1.029,0v1.044A.514.514,0,0,1,339.379,184.18Z" transform="translate(-338.865 -177.637)" fill="#fce25b"/>
  </g>
</svg>
