<svg id="Group_900" data-name="Group 900" xmlns="http://www.w3.org/2000/svg" width="375" height="173" viewBox="0 0 375 173">
  <g id="Group_895" data-name="Group 895" transform="translate(0 27.697)" opacity="0.04">
    <path id="Path_2236" data-name="Path 2236" d="M313.383,234.982c-23.052,3.579-46.547,3.015-69.826,1.5-20.157-1.311-40.609-3.307-60.393.768-16.7,3.441-32.192,11.066-47.891,17.732a446.456,446.456,0,0,1-135.2,33.7v14.9c40.438,3.831,81.338-8.917,119.2-24.548,19.762-8.159,39.451-17.22,60.549-20.682,12.969-2.128,26.192-2.085,39.329-1.708,32.618.935,65.4,3.887,97.78-.119a229.559,229.559,0,0,0,58.141-15.158V211.349C357.005,224.229,335.34,231.573,313.383,234.982Z" transform="translate(-0.069 -211.349)" fill="#fff"/>
  </g>
  <g id="Group_897" data-name="Group 897" transform="translate(0)">
    <g id="Group_896" data-name="Group 896" opacity="0.04">
      <path id="Path_2237" data-name="Path 2237" d="M242.759,0c-19.955,8.349-40.046,16.254-61,21.5-28.273,7.073-57.99,9.267-84.771,20.762-14.484,6.216-27.721,15-41.957,21.767C37.6,72.3,18.955,77.432.069,81.624v.79C16.585,83.8,33.441,79.86,49.114,74.084,67.677,67.242,85.232,57.86,103.862,51.2c46.37-16.568,96.868-15.512,145.7-21.829A480.2,480.2,0,0,0,363.7,0Z" transform="translate(-0.069)" fill="#fff"/>
    </g>
  </g>
  <g id="Group_898" data-name="Group 898" transform="translate(0 103.841)" opacity="0.04">
    <path id="Path_2238" data-name="Path 2238" d="M277.143,734.363c-33.85-6.149-68.152-14.3-102.275-9.913-17.837,2.293-35.035,7.959-52.439,12.487A500.261,500.261,0,0,1,.069,753.229v8.22c35.052,3.407,70.452,5.42,104.749-1.956,23.444-5.042,55.85-8.549,79.68-5.873,27.462,3.083,66.651,23.484,107.233,36.763,13.635,4.461,42.432,0,42.432,0s27.461,3.366,40.906,0V733.821C343.908,744.194,309.608,740.26,277.143,734.363Z" transform="translate(-0.069 -723.206)" fill="#fff"/>
  </g>
  <g id="Group_899" data-name="Group 899" opacity="0.04">
    <path id="Path_2239" data-name="Path 2239" d="M90.657,0Q57.643,18.416,24.413,36.444C16.332,40.827,8.231,45.2.068,49.44V69.967c38.964-16.8,73.005-45.525,112.258-62.684,6-2.625,12.123-4.974,18.258-7.283Z" transform="translate(-0.068)" fill="#fff"/>
  </g>
</svg>
