<svg xmlns="http://www.w3.org/2000/svg" width="90" height="117.323" viewBox="0 0 90 117.323">
  <g id="Group_83" data-name="Group 83" transform="translate(-147 -40)">
    <g id="Group_71" data-name="Group 71" transform="translate(163 40)">
      <g id="Group_81" data-name="Group 81" transform="translate(4.988 5.041)">
        <g id="Group_48" data-name="Group 48" transform="translate(14.477 16.762)">
          <g id="Group_43" data-name="Group 43" transform="translate(8.929 1.991)">
            <path id="Path_7" data-name="Path 7" d="M2120.142,2313.175l2.306,1.273a1.365,1.365,0,0,0,1.734-.353q.31-.395.6-.808a3.834,3.834,0,0,0,.682-1.359.755.755,0,0,0-.231-.763,7.963,7.963,0,0,0-2.323-1.478.227.227,0,0,0-.33.1c-.608.861-1.225,1.716-1.84,2.573C2120.541,2312.63,2120.341,2312.9,2120.142,2313.175Z" transform="translate(-2120.142 -2309.652)" fill="#fff"/>
          </g>
          <g id="Group_44" data-name="Group 44" transform="translate(5.461)">
            <path id="Path_8" data-name="Path 8" d="M2084.184,2292.619a.583.583,0,0,0,.721-.189l.134-.186c.616-.856,1.233-1.711,1.84-2.573l.01-.012c.031-.378-.189-.613-.625-.93-.531-.385-1.134-.673-1.7-1.009-.138-.081-.22-.053-.309.083-.4.61-.824,1.21-1.229,1.82-.387.583-.762,1.172-1.169,1.8.815.422,1.563.823,2.325,1.194Z" transform="translate(-2081.854 -2287.675)" fill="#fff"/>
          </g>
          <g id="Group_45" data-name="Group 45" transform="translate(10.319 5.304)">
            <path id="Path_9" data-name="Path 9" d="M2142,2348.218a.723.723,0,0,0-.221-.731,6.6,6.6,0,0,0-1.569-1.1c-.095-.045-.19-.089-.285-.133a.218.218,0,0,0-.316.092c-.581.825-1.172,1.643-1.761,2.462-.473.659-1.588,2.015-2.039,2.688a5.356,5.356,0,0,0-.276.466.515.515,0,0,0,.226.7c.3.148.589.306.877.475a1.849,1.849,0,0,0,1.922-.391l.007-.006a26.673,26.673,0,0,0,2.782-3.224A3.667,3.667,0,0,0,2142,2348.218Z" transform="translate(-2135.477 -2346.224)" fill="#fff"/>
          </g>
          <g id="Group_46" data-name="Group 46" transform="translate(13.725 8.321)">
            <path id="Path_10" data-name="Path 10" d="M2178.659,2380.567a5.486,5.486,0,0,0-1.6-1.019.156.156,0,0,0-.228.066c-.419.593-2.066,2.407-2.49,3-.341.475-.694.941-1.02,1.426a3.721,3.721,0,0,0-.2.335.371.371,0,0,0,.164.5c.23.115.459.239.682.372a1.331,1.331,0,0,0,1.6-.179l0,0a34.5,34.5,0,0,0,2.777-3.037,2.644,2.644,0,0,0,.47-.937A.52.52,0,0,0,2178.659,2380.567Z" transform="translate(-2173.079 -2379.524)" fill="#fff"/>
          </g>
          <g id="Group_47" data-name="Group 47" transform="translate(0 4.114)">
            <path id="Path_11" data-name="Path 11" d="M2036.229,2344.245c-2.129-2.17-8.767-5.039-8.767-5.039h0a3.975,3.975,0,0,0,.488-1.181c.29.172.631.364,1.033.578,2.585,1.374,4.66-1.7,4.66-1.7l-4.637-2.6h0a20.559,20.559,0,0,0-2.418-1.136.974.974,0,0,0-1.152.281,6.141,6.141,0,0,0-.467.623c-.706,1.1-1.422,2.2-2.1,3.313-.453.748-.851,1.529-1.257,2.3a.456.456,0,0,0,.01.374q.1.177.2.351h-.016l3.979,7.4a4.085,4.085,0,0,1,.451,2.476l-.875,14.158h12.04l.093-13.4a4.086,4.086,0,0,1,1.1-2.729h0a4.084,4.084,0,0,0,1.106-2.807l-.01-3.143C2038.51,2344,2037.178,2345.212,2036.229,2344.245Z" transform="translate(-2021.576 -2333.084)" fill="#fff"/>
          </g>
        </g>
        <g id="Group_54" data-name="Group 54" transform="translate(8.563 0)">
          <g id="Group_49" data-name="Group 49" transform="translate(14.408 11.382)">
            <circle id="Ellipse_27" data-name="Ellipse 27" cx="1.299" cy="1.299" r="1.299" fill="#fff"/>
          </g>
          <g id="Group_50" data-name="Group 50" transform="translate(0 7.193)">
            <circle id="Ellipse_28" data-name="Ellipse 28" cx="0.852" cy="0.852" r="0.852" fill="#fff"/>
          </g>
          <g id="Group_51" data-name="Group 51" transform="translate(8.551 1.205)">
            <circle id="Ellipse_29" data-name="Ellipse 29" cx="1.889" cy="1.889" r="1.889" fill="#fff"/>
          </g>
          <g id="Group_52" data-name="Group 52" transform="translate(13.337)">
            <ellipse id="Ellipse_30" data-name="Ellipse 30" cx="2.318" cy="4.99" rx="2.318" ry="4.99" fill="#fff"/>
          </g>
          <g id="Group_53" data-name="Group 53" transform="translate(0.478 1.668)">
            <ellipse id="Ellipse_31" data-name="Ellipse 31" cx="3.294" cy="7.091" rx="3.294" ry="7.091" transform="translate(0 3.976) rotate(-37.129)" fill="#fff"/>
          </g>
        </g>
        <g id="Group_60" data-name="Group 60" transform="translate(0 9.893)">
          <g id="Group_55" data-name="Group 55" transform="translate(13.227 7.003)">
            <circle id="Ellipse_32" data-name="Ellipse 32" cx="1.299" cy="1.299" r="1.299" fill="#fff"/>
          </g>
          <g id="Group_56" data-name="Group 56" transform="translate(2.232 17.997)">
            <path id="Path_12" data-name="Path 12" d="M1887.692,2410.623a.852.852,0,1,1-1.164.312A.852.852,0,0,1,1887.692,2410.623Z" transform="translate(-1886.414 -2410.509)" fill="#fff"/>
          </g>
          <g id="Group_57" data-name="Group 57" transform="translate(1.447 5.928)">
            <circle id="Ellipse_33" data-name="Ellipse 33" cx="1.889" cy="1.889" r="1.889" transform="translate(0 0.548) rotate(-8.344)" fill="#fff"/>
          </g>
          <g id="Group_58" data-name="Group 58" transform="translate(2.359 0)">
            <ellipse id="Ellipse_34" data-name="Ellipse 34" cx="2.318" cy="4.99" rx="2.318" ry="4.99" transform="translate(0 4.015) rotate(-60)" fill="#fff"/>
          </g>
          <g id="Group_59" data-name="Group 59" transform="translate(0 9.676)">
            <ellipse id="Ellipse_35" data-name="Ellipse 35" cx="7.091" cy="3.294" rx="7.091" ry="3.294" transform="translate(0 1.76) rotate(-7.129)" fill="#fff"/>
          </g>
        </g>
        <g id="Group_66" data-name="Group 66" transform="translate(2.315 28.779)">
          <g id="Group_61" data-name="Group 61" transform="translate(10.691 3.213)">
            <circle id="Ellipse_36" data-name="Ellipse 36" cx="0.852" cy="0.852" r="0.852" transform="matrix(0.933, -0.36, 0.36, 0.933, 0, 0.614)" fill="#fff"/>
          </g>
          <g id="Group_62" data-name="Group 62" transform="translate(31.742 6.012)">
            <circle id="Ellipse_37" data-name="Ellipse 37" cx="0.852" cy="0.852" r="0.852" transform="translate(0 0.776) rotate(-27.097)" fill="#fff"/>
          </g>
          <g id="Group_63" data-name="Group 63" transform="translate(4.132 7.654)">
            <circle id="Ellipse_38" data-name="Ellipse 38" cx="1.889" cy="1.889" r="1.889" transform="matrix(0.259, -0.966, 0.966, 0.259, 0, 3.649)" fill="#fff"/>
          </g>
          <g id="Group_64" data-name="Group 64" transform="translate(0 0)">
            <ellipse id="Ellipse_39" data-name="Ellipse 39" cx="4.99" cy="2.318" rx="4.99" ry="2.318" transform="matrix(0.866, -0.5, 0.5, 0.866, 0, 4.99)" fill="#fff"/>
          </g>
          <g id="Group_65" data-name="Group 65" transform="translate(7.855 5.239)">
            <ellipse id="Ellipse_40" data-name="Ellipse 40" cx="5.267" cy="2.446" rx="5.267" ry="2.446" transform="translate(0 9.706) rotate(-67.13)" fill="#fff"/>
          </g>
        </g>
        <g id="Group_69" data-name="Group 69" transform="translate(31.223 37.61)">
          <g id="Group_67" data-name="Group 67" transform="translate(6.857 1.245)">
            <circle id="Ellipse_41" data-name="Ellipse 41" cx="0.852" cy="0.852" r="0.852" fill="#fff"/>
          </g>
          <g id="Group_68" data-name="Group 68" transform="translate(0 0)">
            <ellipse id="Ellipse_42" data-name="Ellipse 42" cx="1.607" cy="3.46" rx="1.607" ry="3.46" transform="translate(0 1.94) rotate(-37.129)" fill="#fff"/>
          </g>
        </g>
        <g id="Group_74" data-name="Group 74" transform="translate(33.457 17.842)">
          <g id="Group_70" data-name="Group 70" transform="translate(10.638 0)">
            <circle id="Ellipse_43" data-name="Ellipse 43" cx="0.852" cy="0.852" r="0.852" transform="matrix(0.511, -0.859, 0.859, 0.511, 0, 1.465)" fill="#fff"/>
          </g>
          <g id="Group_71-2" data-name="Group 71" transform="translate(8.631 9.277)">
            <circle id="Ellipse_44" data-name="Ellipse 44" cx="1.889" cy="1.889" r="1.889" transform="matrix(0.681, -0.732, 0.732, 0.681, 0, 2.767)" fill="#fff"/>
          </g>
          <g id="Group_72" data-name="Group 72" transform="translate(1.57 11.013)">
            <ellipse id="Ellipse_45" data-name="Ellipse 45" cx="2.318" cy="4.99" rx="2.318" ry="4.99" transform="matrix(0.5, -0.866, 0.866, 0.5, 0, 4.015)" fill="#fff"/>
          </g>
          <g id="Group_73" data-name="Group 73" transform="translate(0 2.045)">
            <ellipse id="Ellipse_46" data-name="Ellipse 46" cx="7.091" cy="3.294" rx="7.091" ry="3.294" transform="translate(0 1.76) rotate(-7.129)" fill="#fff"/>
          </g>
        </g>
        <g id="Group_80" data-name="Group 80" transform="translate(26.885 1.655)">
          <g id="Group_75" data-name="Group 75" transform="translate(5.733 15.408)">
            <path id="Path_13" data-name="Path 13" d="M2223.771,2293.419a1.3,1.3,0,1,1,.475-1.775A1.3,1.3,0,0,1,2223.771,2293.419Z" transform="translate(-2221.821 -2290.995)" fill="#fff"/>
          </g>
          <g id="Group_76" data-name="Group 76" transform="translate(2.435 0.34)">
            <circle id="Ellipse_47" data-name="Ellipse 47" cx="0.852" cy="0.852" r="0.852" transform="translate(0 0.962) rotate(-34.345)" fill="#fff"/>
          </g>
          <g id="Group_77" data-name="Group 77" transform="translate(10.137 4.787)">
            <circle id="Ellipse_48" data-name="Ellipse 48" cx="1.889" cy="1.889" r="1.889" transform="translate(0 1.818) rotate(-28.757)" fill="#fff"/>
          </g>
          <g id="Group_78" data-name="Group 78" transform="translate(8.186 8.314)">
            <ellipse id="Ellipse_49" data-name="Ellipse 49" cx="4.99" cy="2.318" rx="4.99" ry="2.318" transform="translate(0 4.99) rotate(-30)" fill="#fff"/>
          </g>
          <g id="Group_79" data-name="Group 79" transform="translate(0 0)">
            <ellipse id="Ellipse_50" data-name="Ellipse 50" cx="7.091" cy="3.294" rx="7.091" ry="3.294" transform="translate(0 13.068) rotate(-67.129)" fill="#fff"/>
          </g>
        </g>
      </g>
      <g id="Group_82" data-name="Group 82">
        <path id="Path_14" data-name="Path 14" d="M1835.879,2105.323a29.076,29.076,0,1,1,11.351-2.292A28.975,28.975,0,0,1,1835.879,2105.323Zm0-55.945a26.7,26.7,0,1,0,10.425,2.1A26.616,26.616,0,0,0,1835.879,2049.378Z" transform="translate(-1806.717 -2047)" fill="#fff"/>
      </g>
    </g>
    <text id="Unira_Onehand" data-name="Unira
Onehand" transform="translate(192 124.323)" fill="#fff" font-size="21" font-family="SegoeUI-Bold, Segoe UI" font-weight="700"><tspan x="-26" y="0">Unira</tspan><tspan x="-44" y="28">Onehand</tspan></text>
  </g>
</svg>
