<svg xmlns="http://www.w3.org/2000/svg" width="20.597" height="20.597" viewBox="0 0 20.597 20.597">
  <path id="book_1_" data-name="book (1)" d="M19.992,19.792H18.662V15.4h1.331a.606.606,0,0,0,0-1.212H15.018a6.523,6.523,0,0,0,2.736-5.312V7.4A4.546,4.546,0,0,0,10.91,3.456a4.145,4.145,0,0,1,.821-2.076A.605.605,0,1,0,10.77.644,5.366,5.366,0,0,0,9.693,3.483,4.538,4.538,0,0,0,2.81,7.4V8.878A6.523,6.523,0,0,0,5.547,14.19H3.4A3.407,3.407,0,0,0,3.4,21H19.992a.606.606,0,0,0,0-1.212ZM4.02,8.878V7.4c0-3.169,4.062-4.613,5.764-2.14a.605.605,0,0,0,1,0c1.708-2.483,5.764-1.007,5.764,2.14V8.878a5.314,5.314,0,0,1-5.3,5.312H9.323a5.314,5.314,0,0,1-5.3-5.312ZM3.4,19.792a2.2,2.2,0,0,1,0-4.391h14.05v1.589H5.173a.606.606,0,0,0,0,1.212H17.452v1.589Z" transform="translate(0 -0.406)" fill="#8cbdff"/>
</svg>
