<svg xmlns="http://www.w3.org/2000/svg" width="21.512" height="22" viewBox="0 0 21.512 22">
  <g id="calendar_15_" data-name="calendar (15)" transform="translate(-5.411)">
    <g id="Group_1743" data-name="Group 1743" transform="translate(5.411)">
      <path id="Path_3433" data-name="Path 3433" d="M119.776,258.741a.5.5,0,0,0-.5-.5h-1.743a.5.5,0,0,0-.5.5v1.742a.5.5,0,0,0,.5.5h1.743a.5.5,0,0,0,.5-.5v-1.742Z" transform="translate(-112.004 -246.604)" fill="#c9ced6"/>
      <path id="Path_3434" data-name="Path 3434" d="M216.411,258.741a.5.5,0,0,0-.5-.5h-1.743a.5.5,0,0,0-.5.5v1.742a.5.5,0,0,0,.5.5h1.743a.5.5,0,0,0,.5-.5Z" transform="translate(-204.284 -246.604)" fill="#c9ced6"/>
      <path id="Path_3435" data-name="Path 3435" d="M313.039,258.741a.5.5,0,0,0-.5-.5H310.8a.5.5,0,0,0-.5.5v1.742a.5.5,0,0,0,.5.5h1.743a.5.5,0,0,0,.5-.5Z" transform="translate(-296.557 -246.604)" fill="#c9ced6"/>
      <path id="Path_3436" data-name="Path 3436" d="M119.776,355.374a.5.5,0,0,0-.5-.5h-1.743a.5.5,0,0,0-.5.5v1.742a.5.5,0,0,0,.5.5h1.743a.5.5,0,0,0,.5-.5v-1.742Z" transform="translate(-112.004 -338.882)" fill="#c9ced6"/>
      <path id="Path_3437" data-name="Path 3437" d="M216.411,355.374a.5.5,0,0,0-.5-.5h-1.743a.5.5,0,0,0-.5.5v1.742a.5.5,0,0,0,.5.5h1.743a.5.5,0,0,0,.5-.5Z" transform="translate(-204.284 -338.882)" fill="#c9ced6"/>
      <path id="Path_3438" data-name="Path 3438" d="M313.039,355.374a.5.5,0,0,0-.5-.5H310.8a.5.5,0,0,0-.5.5v1.742a.5.5,0,0,0,.5.5h1.743a.5.5,0,0,0,.5-.5v-1.742Z" transform="translate(-296.557 -338.882)" fill="#c9ced6"/>
      <path id="Path_3439" data-name="Path 3439" d="M25.008,54.152v2.661a2.174,2.174,0,0,1-2.178,2.172H21.456a2.185,2.185,0,0,1-2.192-2.172V54.142H13.07v2.671a2.185,2.185,0,0,1-2.191,2.172H9.5a2.174,2.174,0,0,1-2.178-2.172V54.152a1.981,1.981,0,0,0-1.915,1.971v15.6A1.982,1.982,0,0,0,7.383,73.7H24.951a1.984,1.984,0,0,0,1.972-1.984v-15.6A1.981,1.981,0,0,0,25.008,54.152Zm-.638,16.6a.853.853,0,0,1-.853.853H8.779a.853.853,0,0,1-.853-.853V62.691a.853.853,0,0,1,.853-.853H23.518a.853.853,0,0,1,.853.853v8.056Z" transform="translate(-5.411 -51.702)" fill="#c9ced6"/>
      <path id="Path_3440" data-name="Path 3440" d="M80.3,5.856h1.359A.747.747,0,0,0,82.4,5.11V.747A.747.747,0,0,0,81.656,0H80.3a.747.747,0,0,0-.747.747V5.11A.747.747,0,0,0,80.3,5.856Z" transform="translate(-76.209)" fill="#c9ced6"/>
      <path id="Path_3441" data-name="Path 3441" d="M345.205,5.856h1.359a.747.747,0,0,0,.747-.747V.747A.747.747,0,0,0,346.564,0h-1.359a.747.747,0,0,0-.747.747V5.11A.747.747,0,0,0,345.205,5.856Z" transform="translate(-329.178)" fill="#c9ced6"/>
    </g>
  </g>
</svg>
