<svg id="calendar_10_" data-name="calendar (10)" xmlns="http://www.w3.org/2000/svg" width="23" height="23" viewBox="0 0 23 23">
  <g id="Group_907" data-name="Group 907">
    <g id="Group_906" data-name="Group 906">
      <path id="Path_2258" data-name="Path 2258" d="M20.7,2.3H19.55V1.15a1.15,1.15,0,0,0-2.3,0V2.3H5.75V1.15A1.086,1.086,0,0,0,4.6,0,1.086,1.086,0,0,0,3.45,1.15V2.3H1.15A1.152,1.152,0,0,0,0,3.45v16.1A1.152,1.152,0,0,0,1.15,20.7H8.165A9.154,9.154,0,0,1,21.85,8.97V3.45A1.237,1.237,0,0,0,20.7,2.3Z" fill="#2f578b"/>
    </g>
  </g>
  <g id="Group_909" data-name="Group 909" transform="translate(9.2 9.2)">
    <g id="Group_908" data-name="Group 908">
      <path id="Path_2259" data-name="Path 2259" d="M211.7,204.8a6.9,6.9,0,1,0,6.9,6.9A6.92,6.92,0,0,0,211.7,204.8Zm2.3,8.05h-2.3a1.086,1.086,0,0,1-1.15-1.15v-3.45a1.15,1.15,0,0,1,2.3,0v2.3H214a1.15,1.15,0,1,1,0,2.3Z" transform="translate(-204.8 -204.8)" fill="#2f578b"/>
    </g>
  </g>
</svg>
