<svg xmlns="http://www.w3.org/2000/svg" width="20" height="21.855" viewBox="0 0 20 21.855">
  <g id="grade" transform="translate(-21.635 0)">
    <path id="Path_2240" data-name="Path 2240" d="M136.444,174.491a.643.643,0,0,0,.787-.456l.681-2.563,2.242-.216.857,2.817a.643.643,0,0,0,1.23-.374l-.781-2.569.159-.015a.643.643,0,0,0-.123-1.28l-.418.04-1.516-4.986a.644.644,0,0,0-1.237.022l-1.427,5.366-1.154.111a.643.643,0,0,0,.123,1.28l.678-.065-.559,2.1a.643.643,0,0,0,.456.787Zm2.544-7.068.784,2.578-1.508.145Z" transform="translate(-108.662 -157.385)" fill="#f1ac1d"/>
    <path id="Path_2241" data-name="Path 2241" d="M288.388,105.153a.643.643,0,0,0,.643-.643v-1.381l.712.041a.643.643,0,1,0,.074-1.284l-.787-.046v-.791a.643.643,0,0,0-1.286,0v.717l-.712-.041a.643.643,0,1,0-.074,1.284l.787.046v1.456A.643.643,0,0,0,288.388,105.153Z" transform="translate(-253.37 -96.102)" fill="#f1ac1d"/>
    <path id="Path_2242" data-name="Path 2242" d="M38.655,3.029a.643.643,0,1,0-.937.881c2.94,3.125,3.51,8.835,1.271,12.728C37.054,20,33.47,21.268,28.9,20.207c-4.678-1.086-6.5-5.984-5.84-10.041.749-4.6,4.89-9.656,14.1-8.782A.643.643,0,0,0,37.277.1C28.164-.762,22.772,3.918,21.789,9.959c-.831,5.1,1.734,10.32,6.819,11.5,4.786,1.111,9.131-.069,11.5-4.18C42.594,12.95,42,6.586,38.655,3.029Z" transform="translate(0 0)" fill="#f1ac1d"/>
  </g>
</svg>
