<svg xmlns="http://www.w3.org/2000/svg" width="20" height="19.654" viewBox="0 0 20 19.654">
  <g id="mortarboard" transform="translate(0 -4.41)">
    <path id="Path_2244" data-name="Path 2244" d="M87.672,346.855a3.117,3.117,0,0,0-2.933,2.071,1.936,1.936,0,0,0-1.406,0,3.113,3.113,0,1,0,.171,1.259.766.766,0,0,1,1.063,0,3.112,3.112,0,1,0,3.1-3.33ZM80.4,351.9a1.936,1.936,0,1,1,1.933-1.936A1.938,1.938,0,0,1,80.4,351.9Zm7.271,0a1.936,1.936,0,1,1,1.936-1.936A1.933,1.933,0,0,1,87.672,351.9Z" transform="translate(-74.258 -329.015)" fill="#da4abc"/>
    <path id="Path_2245" data-name="Path 2245" d="M19.461,18.318V9.353a.591.591,0,0,0-.335-.531L9.983,4.467a.588.588,0,0,0-.506,0L.334,8.822a.589.589,0,0,0,0,1.062L3.94,11.6v4.548a.588.588,0,0,0,.588.588h10.5a.588.588,0,0,0,.588-.588V11.555l2.667-1.27v8.033a.588.588,0,0,0,.049,1.174h1.078a.588.588,0,0,0,.049-1.174Zm-5.02-2.757H5.116v-3.4l4.361,2.077a.588.588,0,0,0,.506,0l4.458-2.123ZM9.73,13.056l-7.774-3.7L9.73,5.65l7.774,3.7Z" transform="translate(0)" fill="#da4abc"/>
  </g>
</svg>
