<svg id="rupiah_1_" data-name="rupiah (1)" xmlns="http://www.w3.org/2000/svg" width="24" height="24" viewBox="0 0 24 24">
  <path id="Path_2262" data-name="Path 2262" d="M183.514,160.818A.824.824,0,0,0,182.7,160h-1.364v1.636H182.7A.824.824,0,0,0,183.514,160.818Zm0,0" transform="translate(-172.059 -151.818)" fill="#c9ced7"/>
  <path id="Path_2263" data-name="Path 2263" d="M289.364,224H288v1.636h1.364a.818.818,0,0,0,0-1.636Zm0,0" transform="translate(-273.273 -212.545)" fill="#c9ced7"/>
  <path id="Path_2264" data-name="Path 2264" d="M12,0A12,12,0,1,0,24,12,12.007,12.007,0,0,0,12,0Zm4.091,14.727H14.727v1.909a.818.818,0,0,1-1.636,0V13.364a.862.862,0,0,1-.153.48.837.837,0,0,1-.665.338.808.808,0,0,1-.48-.153l-2.52-1.8v1.134a.818.818,0,1,1-1.636,0v-6a.824.824,0,0,1,.818-.818h2.182a2.455,2.455,0,0,1,.338,4.887L12.753,12.7a.837.837,0,0,1,.338.665V10.636a.824.824,0,0,1,.818-.818h2.182a2.455,2.455,0,0,1,0,4.909Zm0,0" fill="#c9ced7"/>
</svg>
