<svg xmlns="http://www.w3.org/2000/svg" width="19" height="18.986" viewBox="0 0 19 18.986">
  <g id="teacher" transform="translate(0 -0.191)">
    <path id="Path_2246" data-name="Path 2246" d="M106.844,135.823h5.091a.559.559,0,1,0,0-1.118h-5.091a.559.559,0,1,0,0,1.118Z" transform="translate(-102.325 -129.503)" fill="#76deac"/>
    <path id="Path_2247" data-name="Path 2247" d="M106.844,197.927h5.091a.559.559,0,0,0,0-1.118h-5.091a.559.559,0,1,0,0,1.118Z" transform="translate(-102.325 -189.293)" fill="#76deac"/>
    <path id="Path_2248" data-name="Path 2248" d="M18.441,3.95A.559.559,0,0,0,19,3.391V.75a.559.559,0,0,0-.559-.559H.559A.559.559,0,0,0,0,.75V3.391a.559.559,0,0,0,.559.559h.41V15.3a.559.559,0,0,0,.559.559h3.9a1.714,1.714,0,0,0,1.634,1.194h3a1.574,1.574,0,0,0,.46-.068v1.632a.559.559,0,0,0,.559.559h7.364A.559.559,0,0,0,19,18.618V13.7a2.481,2.481,0,0,0-.969-1.966V3.95ZM1.118,1.309H17.882V2.832H1.118Zm16.765,16.75H16.428V14.715a.559.559,0,0,0-1.118,0v3.344H11.636V14.715a.559.559,0,0,0-1.118,0v.762a.461.461,0,0,1-.46.46h-3a.6.6,0,1,1,0-1.194H8.866a.559.559,0,0,0,.559-.559V13.7a1.368,1.368,0,0,1,1.367-1.366h5.725A1.368,1.368,0,0,1,17.882,13.7Zm-5.5-7.931V9.165a1.09,1.09,0,1,1,2.18,0v.964a1.09,1.09,0,0,1-2.18,0Zm4.531,1.122a2.488,2.488,0,0,0-.4-.032H15.392a2.193,2.193,0,0,0,.289-1.09V9.165a2.208,2.208,0,1,0-4.415,0v.964a2.193,2.193,0,0,0,.289,1.09h-.763a2.487,2.487,0,0,0-2.483,2.407H7.059a1.708,1.708,0,0,0-.519.081L4.592,10.012a.559.559,0,1,0-.989.521l2.032,3.853a1.711,1.711,0,0,0-.183.357H2.086V3.95H16.914Z" fill="#76deac"/>
  </g>
</svg>
